<svg width="57" height="57" viewBox="0 0 57 57" fill="none" xmlns="http://www.w3.org/2000/svg">
<path d="M30.3292 4.62189C29.5668 4.40688 29.0123 3.77559 28.3092 3.43707C27.5105 3.04479 26.5853 3.12942 25.7425 3.24493C25.2914 3.30669 24.847 3.40619 24.463 3.66008C24.441 3.66008 24.4179 3.67609 24.4113 3.69096L24.4036 3.69896C23.42 3.69896 22.5168 4.17587 21.5772 4.41375C21.0524 4.55213 20.5122 4.59101 19.9721 4.65963C20.3868 4.52125 20.8082 4.39087 21.2076 4.22962C21.4144 4.14499 21.6223 4.04549 21.8138 3.91397C22.0063 3.78359 22.1614 3.61433 22.3099 3.43707C22.3837 3.35243 22.4508 3.26094 22.5388 3.18317C22.6433 3.09168 22.7687 3.02993 22.9018 2.97617C23.101 2.89154 23.2935 2.7909 23.464 2.66053C23.7974 2.41464 24.0702 2.08412 24.2551 1.70672C24.3662 1.47684 24.441 1.23782 24.4927 0.98393C24.5444 0.692298 24.5807 0.392661 24.6995 0.115897C24.7359 0.0232612 24.6258 -0.0465018 24.5741 0.0381286C24.3365 0.422396 23.9591 0.684293 23.5598 0.861559C23.1164 1.0617 22.6433 1.1692 22.1988 1.36934C21.7775 1.56147 21.4958 1.89199 21.2296 2.27626C21.0887 2.4764 20.8973 2.62278 20.7191 2.78404C20.5497 2.94529 20.3791 3.11456 20.2306 3.29868C19.9126 3.69896 19.6618 4.16786 19.5947 4.69051C19.5947 4.69851 19.5947 4.70652 19.5947 4.71453C19.225 4.78314 18.8554 4.88264 18.4923 5.01416C17.6199 5.32867 16.7837 5.7827 15.9927 6.28247C16.2512 5.96797 16.5769 5.73695 16.9322 5.54482C17.2942 5.35268 17.6859 5.16055 17.9301 4.79115C18.0566 4.59902 18.1226 4.368 18.1446 4.13698C18.1601 4.02147 18.16 3.90596 18.1523 3.78359C18.1446 3.72183 18.1446 3.66008 18.1303 3.60633C18.1226 3.5297 18.0929 3.44507 18.1083 3.36845C18.1303 3.25294 18.2261 3.12942 18.2778 3.02192C18.3372 2.90641 18.3889 2.78404 18.434 2.66053C18.522 2.42265 18.5814 2.16875 18.6034 1.91486C18.6705 1.28471 18.4626 0.700304 18.2338 0.122759C18.2118 0.0610018 18.1083 0.0381288 18.0929 0.122759C17.9972 0.531043 17.6936 0.822675 17.4196 1.11545C17.2865 1.26069 17.1534 1.40708 17.0423 1.57634C16.9025 1.78449 16.8211 2.02237 16.6803 2.23051C16.4361 2.5839 16.1027 2.86066 15.8596 3.21405C15.5702 3.62234 15.4965 4.12211 15.4822 4.62189C15.4668 5.24404 15.5702 5.86733 15.667 6.47461C14.9937 6.91377 14.3501 7.41355 13.7802 7.98995C13.0926 8.68986 12.5304 9.51215 12.1894 10.4511C12.153 10.5426 12.3005 10.5815 12.3302 10.4888C12.7152 9.42066 13.3952 8.52861 14.2093 7.7818C14.217 7.81268 14.239 7.82869 14.2764 7.82869C14.5492 7.80582 14.7352 8.08258 14.8969 8.27472C15.0971 8.5126 15.2743 8.75848 15.4074 9.04325C15.5339 9.29714 15.6516 9.53617 15.8145 9.75918C15.963 9.95817 16.1401 10.1354 16.3326 10.2967C16.7177 10.6043 17.1688 10.8274 17.6496 10.912C17.9235 10.9577 18.1964 10.9577 18.478 10.9509C18.7817 10.9349 19.0919 10.912 19.3879 10.9817C19.7212 11.0584 20.0161 11.2505 20.312 11.4346C20.6234 11.6268 20.927 11.8269 21.223 12.035C21.2593 12.0579 21.3264 12.035 21.333 11.9882C21.3407 11.9584 21.3407 11.9195 21.3484 11.8887C21.3484 11.8807 21.3561 11.8658 21.3561 11.8578C21.3781 11.5501 21.3187 11.2505 21.223 10.9577C21.1118 10.6123 20.9633 10.2738 20.8302 9.94331C20.7642 9.77405 20.6894 9.60479 20.6234 9.43552C20.564 9.28914 20.5045 9.12788 20.4308 8.9895C20.3648 8.85912 20.268 8.74362 20.1426 8.66699C20.0161 8.58922 19.8686 8.54348 19.7355 8.48172C19.1953 8.22097 18.7883 7.74406 18.2481 7.48217C17.9521 7.33578 17.6342 7.26716 17.3162 7.22828C16.9686 7.18253 16.6209 7.13678 16.2655 7.12077C15.755 7.08989 15.2303 7.13678 14.7638 7.34378C15.0751 7.08989 15.4008 6.86002 15.733 6.64387C16.5318 6.12122 17.3756 5.63631 18.2558 5.28292C18.3812 5.22917 18.5154 5.18342 18.6408 5.13653C18.6485 5.15255 18.6628 5.16741 18.6848 5.17542C19.269 5.27492 19.7949 5.59857 20.1646 6.08233C20.3571 6.33623 20.5342 6.57525 20.8159 6.7365C21.0821 6.89776 21.3704 7.00526 21.6289 7.17452C21.9029 7.35179 22.1251 7.5668 22.2879 7.85957C22.4354 8.12032 22.5619 8.39023 22.7533 8.62811C23.1241 9.07413 23.6269 9.38177 24.1517 9.57391C24.869 9.84267 25.6314 9.90442 26.3861 9.96618C26.4521 9.97419 26.4752 9.88155 26.4378 9.8358C26.0165 9.30515 25.7128 8.68186 25.4686 8.0437C25.3509 7.72805 25.2463 7.40554 25.1506 7.08303C25.0549 6.77539 24.9581 6.46775 24.7733 6.20585C24.4333 5.73695 23.8931 5.47506 23.3529 5.33667C23.0273 5.25204 22.6873 5.2063 22.354 5.19029C21.992 5.17542 21.6289 5.23718 21.267 5.23718C20.8676 5.23718 20.4825 5.06791 20.0832 5.00616C19.8092 4.96041 19.5287 4.9444 19.2547 4.95241C19.4022 4.91352 19.5507 4.88264 19.6981 4.85977C20.2163 4.76828 20.7411 4.74426 21.2593 4.64476C22.3176 4.44462 23.3089 3.85221 24.3959 3.85221C24.3739 3.88309 24.3739 3.93684 24.4113 3.96772C25.0395 4.40688 25.7051 4.82203 26.4455 5.02903C26.8295 5.13653 27.2223 5.16741 27.6139 5.14454C28.0353 5.12167 28.4578 5.04504 28.8714 4.98328C29.3599 4.91352 29.8484 4.8449 30.3369 4.77514C30.4029 4.75227 30.3952 4.63676 30.3292 4.62189ZM19.6838 10.928C19.1062 10.697 18.4923 10.8662 17.9004 10.8125C17.3976 10.7656 16.9091 10.5666 16.5032 10.259C16.2952 10.1046 16.1104 9.92043 15.9553 9.72029C15.7782 9.49728 15.6593 9.24339 15.5339 8.9895C15.3854 8.68186 15.1786 8.4131 14.964 8.1512C14.8452 8.00482 14.7055 7.83555 14.5272 7.75207C15.4888 7.55879 16.5098 7.76694 17.3382 8.31246C17.5605 8.45885 17.7673 8.62811 17.9521 8.81223C18.1667 9.03525 18.3592 9.27427 18.6034 9.4664C18.8477 9.65053 19.1139 9.76604 19.3879 9.88955C19.6761 10.0199 19.9126 10.2041 20.1503 10.4122C20.586 10.7965 21.0447 11.2425 21.1856 11.8429C20.9556 11.6817 20.7191 11.5273 20.4825 11.3809C20.2306 11.2116 19.9721 11.0424 19.6838 10.928ZM16.0587 7.26716C16.3987 7.27517 16.732 7.31291 17.072 7.35179C17.3833 7.38953 17.7013 7.43642 17.9972 7.54392C18.5374 7.74406 18.9445 8.18208 19.4253 8.48172C19.5353 8.55148 19.6541 8.61324 19.7729 8.66699C19.906 8.72074 20.0458 8.76649 20.1569 8.87399C20.268 8.97463 20.3274 9.11988 20.3868 9.25826C20.4528 9.42066 20.5199 9.58992 20.586 9.75117C20.7268 10.1046 20.8742 10.458 21.0084 10.8193C21.0667 10.9886 21.1261 11.1659 21.1636 11.3431C20.9853 11.0126 20.7268 10.7279 20.4528 10.474C20.2317 10.2738 20.0095 10.0657 19.7575 9.90442C19.4836 9.73516 19.1733 9.65053 18.8994 9.48127C18.6188 9.30515 18.4043 9.06613 18.1821 8.82825C17.9972 8.6201 17.7904 8.44398 17.5682 8.28158C17.1314 7.96708 16.6286 7.74406 16.1027 7.62855C15.6153 7.52105 15.1048 7.50504 14.6087 7.58967C15.0454 7.32892 15.5636 7.25915 16.0587 7.26716ZM15.6219 4.78314C15.6219 4.27536 15.667 3.75271 15.963 3.32956C16.2072 2.97617 16.5318 2.70741 16.776 2.36089C16.9168 2.16075 17.006 1.92287 17.1391 1.71472C17.2425 1.54546 17.3756 1.39221 17.5164 1.25383C17.731 1.03082 17.9521 0.799801 18.1006 0.523038C18.0192 1.38421 17.7673 2.26139 17.3239 2.99905C17.2051 3.19118 17.0577 3.35244 16.9168 3.5297C16.7991 3.67609 16.688 3.83734 16.5989 4.0066C16.4141 4.35199 16.2886 4.72939 16.1621 5.09879C16.0444 5.47506 15.9256 5.84446 15.7705 6.20585C15.689 5.72895 15.6296 5.26005 15.6219 4.78314ZM16.6726 4.16786C16.7617 3.98373 16.8728 3.81447 16.9983 3.66008C17.1391 3.49082 17.2865 3.33757 17.4053 3.14543C17.6496 2.76803 17.8267 2.33001 17.9675 1.89885C18.1083 1.47684 18.1964 1.03082 18.2415 0.584795C18.3746 0.961057 18.478 1.35333 18.4626 1.76047C18.456 2.02237 18.4043 2.28426 18.3152 2.53815C18.2338 2.78404 18.1149 2.99905 17.9972 3.23006C17.9521 3.32956 17.9455 3.41419 17.9598 3.5217C17.9818 3.65322 17.9972 3.78359 17.9972 3.92197C17.9972 4.16786 17.9598 4.42976 17.8344 4.64476C17.6276 5.02903 17.2205 5.22116 16.8574 5.4133C16.5252 5.59056 16.2292 5.79871 15.9696 6.06747C16.2292 5.44418 16.3701 4.77514 16.6726 4.16786ZM22.8941 8.56635C22.6873 8.32847 22.5542 8.05171 22.3991 7.77494C22.2505 7.50504 22.058 7.29003 21.8138 7.12077C21.5629 6.94351 21.2813 6.82113 21.015 6.67475C20.8742 6.59812 20.7345 6.5215 20.6157 6.40599C20.4979 6.29849 20.4088 6.16697 20.312 6.03659C20.0689 5.71408 19.7652 5.44418 19.4253 5.26005C19.8466 5.34468 20.2537 5.48306 20.6531 5.66719C20.7939 5.72895 20.927 5.79871 21.0744 5.83645C21.2296 5.87533 21.3847 5.88334 21.5409 5.8902C21.8138 5.90621 22.0811 5.95996 22.3396 6.07547C22.8127 6.29048 23.2198 6.67475 23.442 7.16652C23.5675 7.43642 23.6489 7.72805 23.8634 7.9442C24.0636 8.1432 24.3222 8.27472 24.4993 8.50459C24.6027 8.63611 24.6841 8.78936 24.8173 8.89687C24.9504 9.01237 25.0989 9.10501 25.2463 9.20451C25.528 9.39664 25.8019 9.58992 26.0825 9.78205C24.9284 9.68141 23.7006 9.48928 22.8941 8.56635ZM19.9126 5.13653C20.268 5.18342 20.6014 5.30579 20.949 5.35955C21.3033 5.4213 21.652 5.35268 22.0063 5.33667C22.3694 5.32867 22.7247 5.35268 23.079 5.4213C23.6269 5.52881 24.1814 5.75182 24.5664 6.19098C24.781 6.43687 24.8844 6.7365 24.9801 7.05215C25.0769 7.36666 25.1803 7.69031 25.2914 7.99795C25.4983 8.55949 25.7502 9.10501 26.0759 9.59678C25.8536 9.44353 25.6314 9.28914 25.4026 9.13589C25.2694 9.04325 25.1286 8.95062 25.0032 8.85912C24.869 8.75848 24.7733 8.63611 24.6775 8.49773C24.5961 8.37422 24.4993 8.27472 24.3882 8.18208C24.2782 8.08945 24.1594 8.01282 24.0482 7.91332C23.8117 7.70518 23.716 7.42841 23.5895 7.14364C23.3749 6.65187 22.991 6.2516 22.5322 6.00571C22.3022 5.88334 22.0514 5.79871 21.7918 5.75982C21.6366 5.73695 21.4815 5.73695 21.3264 5.72094C21.1559 5.70607 21.0007 5.66033 20.8456 5.59056C20.5045 5.44418 20.1789 5.29093 19.8246 5.19829C19.6838 5.16055 19.5353 5.12967 19.3956 5.10566C19.565 5.10566 19.7432 5.11366 19.9126 5.13653ZM24.3882 0.669425C24.3365 0.930178 24.3002 1.19207 24.2034 1.43796C24.0482 1.83824 23.7897 2.19163 23.464 2.46039C23.2935 2.59877 23.1087 2.71428 22.9161 2.79891C22.7016 2.89154 22.5025 2.97617 22.3396 3.15344C22.1845 3.32156 22.058 3.50683 21.8886 3.66008C21.7103 3.81447 21.5035 3.92998 21.289 4.02948C20.8819 4.21361 20.4451 4.35199 20.0161 4.49151C20.2306 4.22962 20.4308 3.96086 20.6751 3.72984C20.9853 3.43707 21.3264 3.18317 21.6806 2.94529C22.354 2.4844 23.0647 2.06811 23.6709 1.50772C23.9448 1.25383 24.1891 0.977068 24.3882 0.669425ZM20.2977 3.45308C20.4451 3.2678 20.608 3.09168 20.7785 2.93043C20.949 2.77603 21.1338 2.63765 21.2747 2.45352C21.4144 2.26825 21.5332 2.07612 21.6883 1.91486C21.8512 1.7456 22.036 1.60722 22.2505 1.51458C22.6873 1.31445 23.1604 1.21495 23.5972 1.01481C23.826 0.91531 24.0482 0.784934 24.2485 0.622535C23.3826 1.92973 21.8292 2.49927 20.6894 3.51483C20.5122 3.66808 20.3494 3.83734 20.1943 4.02147C20.0458 4.19874 19.9126 4.38287 19.7575 4.56013C19.8466 4.14499 20.0458 3.77559 20.2977 3.45308ZM29.0266 4.79801C28.6052 4.85977 28.1915 4.92953 27.7625 4.96727C27.3697 5.00616 26.978 4.99129 26.593 4.89865C26.231 4.81402 25.8899 4.66764 25.5577 4.49838C25.1803 4.29824 24.825 4.06836 24.4696 3.82248C24.4773 3.81447 24.4773 3.81447 24.485 3.80647C24.8173 3.87623 25.1506 3.82934 25.484 3.84535C25.8162 3.86022 26.1342 3.92998 26.4598 4.01461C27.044 4.16786 27.6293 4.35999 28.2278 4.35199C28.2432 4.376 28.2729 4.39087 28.3092 4.38287C28.6349 4.30624 28.9232 4.39888 29.2268 4.53726C29.3742 4.60588 29.5151 4.66764 29.6702 4.69851C29.4556 4.7374 29.2411 4.76828 29.0266 4.79801ZM29.1454 4.33712C28.9166 4.23762 28.6866 4.19073 28.4501 4.21361C28.4347 4.20674 28.4204 4.19874 28.3984 4.19874C27.7394 4.24448 27.1034 4.02948 26.4752 3.86822C26.1639 3.7916 25.8459 3.72183 25.528 3.70697C25.254 3.69096 24.9801 3.72184 24.7072 3.69896C24.9955 3.55257 25.3211 3.46794 25.6391 3.41419C26.0682 3.34557 26.5192 3.30669 26.956 3.30669C27.3917 3.30669 27.8285 3.36845 28.2278 3.56058C28.5755 3.72984 28.8791 3.96086 29.1894 4.18387C29.3973 4.32911 29.6042 4.4675 29.833 4.58301C29.5888 4.56013 29.3676 4.42976 29.1454 4.33712Z" fill="black"/>
<mask id="mask0_199_2015" style="mask-type:luminance" maskUnits="userSpaceOnUse" x="-1" y="4" width="19" height="32">
<path d="M-0.0315126 4.67339H17.9136V35.7076H-0.0315126V4.67339Z" fill="white"/>
</mask>
<g mask="url(#mask0_199_2015)">
<path d="M17.6494 12.012C16.3764 11.781 15.0672 10.9118 13.7657 11.5042C13.4698 11.6346 13.2035 11.8199 12.8845 11.8805C12.5665 11.9422 12.2409 11.9274 11.9229 11.9811C11.3541 12.0806 10.7985 12.3036 10.3628 12.6959C10.0966 12.9349 9.89636 13.2426 9.71923 13.5571C9.57071 13.811 9.42988 14.0649 9.29016 14.3107C9.31217 14.1884 9.32647 14.0649 9.34847 13.9413C9.37818 13.7492 9.42328 13.5571 9.47499 13.3649C9.57071 13.0035 9.69613 12.6422 9.84465 12.3036C9.87436 12.3036 9.90406 12.2888 9.91066 12.2579C9.91837 12.2499 9.91837 12.2499 9.92607 12.2419C10.0592 12.0189 10.2143 11.8119 10.4068 11.6346C10.5917 11.4585 10.8139 11.335 11.0208 11.1886C11.221 11.0502 11.3981 10.8889 11.5235 10.6739C11.6567 10.4509 11.7535 10.2039 11.8415 9.958C12.034 9.45136 12.1671 8.9127 12.1154 8.36603C12.0637 7.80564 11.8646 7.28185 11.8052 6.72031C11.7315 6.05928 11.9383 5.42112 12.1528 4.80584C12.1825 4.72921 12.0791 4.69033 12.0263 4.72921C11.627 5.05973 11.2276 5.39825 10.8953 5.79853C10.5477 6.21368 10.3254 6.68257 10.2 7.21323C10.1329 7.50486 10.0735 7.79764 9.97778 8.08241C9.87436 8.35917 9.71923 8.61992 9.59271 8.88182C9.34847 9.37359 9.23075 9.91225 9.27476 10.4658C9.29676 10.7654 9.36387 11.0582 9.47499 11.343C9.57071 11.5969 9.77094 11.8496 9.78524 12.1275C9.77094 12.1344 9.75554 12.1424 9.74784 12.1572C9.45959 12.7885 9.28246 13.4576 9.17904 14.1415C9.15704 14.3107 9.12733 14.48 9.04592 14.6264C8.97111 14.7648 8.85339 14.8643 8.73457 14.9718C8.51343 15.1719 8.3055 15.3881 8.11296 15.6111C7.31423 16.5329 6.72233 17.6022 6.37467 18.7561C6.18984 19.3634 6.07212 19.9936 6.02702 20.6317C5.89389 20.3481 5.75307 20.0633 5.65735 19.7637C5.53853 19.3943 5.46482 19.002 5.43512 18.6177C5.37681 17.7326 5.54624 16.8405 5.85759 16.0102C5.85759 16.0022 5.85759 15.9953 5.85759 15.9873C6.38238 15.6111 6.82575 15.1262 7.1448 14.5498C7.49906 13.9116 7.64759 13.2037 7.61788 12.4729C7.58818 11.6117 7.48476 10.7505 7.35164 9.89738C7.28453 9.46623 7.21081 9.03507 7.1217 8.60506C7.04799 8.24366 6.95997 7.89713 6.72233 7.6055C6.47809 7.30587 6.14584 7.10573 5.82018 6.92045C5.51653 6.75119 5.18427 6.55906 4.82892 6.57507C4.80691 6.56707 4.79151 6.56707 4.77721 6.57507C4.7332 6.57507 4.68809 6.58193 4.64408 6.59794C4.57697 6.61281 4.57697 6.70545 4.62868 6.73633C5.15457 7.05884 5.38341 7.72787 5.20628 8.32829C5.10946 8.65881 4.91803 8.95844 4.7332 9.25122C4.54727 9.54285 4.37784 9.84249 4.22932 10.1661C3.95647 10.7814 3.82995 11.4425 4.01478 12.1035C4.19961 12.7416 4.58467 13.2803 4.88833 13.8567C5.25799 14.5726 5.50223 15.3572 5.61335 16.1566C5.61335 16.1646 5.61995 16.1795 5.61995 16.1875C5.39881 16.8485 5.26569 17.5484 5.26569 18.2483C5.26569 18.6326 5.30199 19.0169 5.39111 19.3863C5.48022 19.7637 5.61335 20.1171 5.77617 20.4625C5.9456 20.817 6.13043 21.1624 6.24155 21.5478C6.36037 21.9549 6.39008 22.3929 6.37467 22.8161C6.36037 23.2392 6.30866 23.6624 6.32296 24.0844C6.33837 24.5156 6.39668 24.9387 6.41978 25.3687C6.47149 26.3454 6.27126 27.2992 6.06442 28.245C6.06442 28.253 6.06442 28.253 6.06442 28.261C6.06442 28.2839 6.05672 28.2988 6.06442 28.3216C6.02702 28.2839 5.98301 28.245 5.9533 28.1913C5.86419 28.0529 5.82788 27.8756 5.78277 27.7144C5.68706 27.345 5.62765 26.9687 5.59794 26.5844C5.59794 26.5844 5.59794 26.5844 5.59794 26.5764C5.62765 26.2002 5.75307 25.8456 5.82018 25.4842C5.87959 25.1697 5.88729 24.8541 5.84989 24.5384C5.77617 23.9083 5.51653 23.3239 5.11716 22.839C4.91033 22.5851 4.67379 22.3552 4.48896 22.0853C4.30413 21.8165 4.21501 21.486 4.01478 21.2241C3.66052 20.7552 3.06092 20.6008 2.52073 20.5013C1.71429 20.3481 0.893557 20.2863 0.0717198 20.3012C0.00570872 20.3012 -0.0316977 20.4087 0.0354137 20.4476C0.575604 20.7243 1.11469 21.0171 1.56687 21.4391C1.78801 21.6393 2.01024 21.8783 2.12906 22.1619C2.26879 22.4776 2.19507 22.831 2.18737 23.1695C2.18077 23.7928 2.3216 24.4389 2.70556 24.9307C2.87609 25.1457 3.08292 25.331 3.32716 25.4465C3.5274 25.546 3.81565 25.6306 3.91136 25.8685C3.97077 26.0229 3.94107 26.1842 4.04448 26.3225C4.1336 26.438 4.26672 26.4998 4.39214 26.5536C4.7332 26.6919 5.09516 26.8303 5.46482 26.8074C5.47252 26.8074 5.47252 26.8074 5.47252 26.8074C5.50223 27.0682 5.53853 27.3301 5.59794 27.584C5.66506 27.8607 5.72446 28.1913 5.9236 28.4063C6.03472 28.5149 6.14584 28.6064 6.21955 28.7448C6.28666 28.8832 6.32296 29.0376 6.36807 29.1908C6.45609 29.5213 6.5452 29.853 6.5452 30.1984C6.5529 30.5449 6.49349 30.8903 6.47149 31.2368C6.44949 31.5822 6.48579 31.9139 6.5452 32.2444C6.57491 32.4136 6.60461 32.5829 6.62662 32.751C6.64862 32.9203 6.64862 33.0975 6.65632 33.2748C6.67062 33.5664 6.71573 33.8512 6.81145 34.128C7.00398 34.7044 7.37364 35.2122 7.85442 35.5667C7.93583 35.6204 8.00955 35.4889 7.92813 35.4352C7.49906 35.1207 7.16681 34.6666 6.98198 34.1588C6.88516 33.8901 6.83345 33.6133 6.81145 33.3286C6.79714 33.1364 6.78944 32.9511 6.76744 32.767C6.80375 32.767 6.83345 32.7361 6.84115 32.6973C6.87086 32.3519 6.96657 32.0214 7.1294 31.7206C7.28453 31.437 7.48476 31.1911 7.55847 30.8594C7.62558 30.5449 7.68389 30.2373 7.79501 29.9296C7.89843 29.6368 8.03925 29.3601 8.20208 29.0993C8.38691 28.7985 8.61685 28.5218 8.86769 28.2839C8.86769 28.2839 8.86769 28.2759 8.87539 28.2759C8.8974 28.2679 8.9194 28.261 8.9348 28.2301C8.9425 28.2141 8.9425 28.2073 8.9491 28.1913C8.95681 28.1993 8.97111 28.2073 8.98651 28.2073C9.66752 28.237 10.3551 28.2839 11.0428 28.2839C11.7018 28.2759 12.3377 28.1764 12.9296 27.8836C13.2178 27.7372 13.4918 27.568 13.758 27.3758C14.0022 27.2066 14.2388 27.0224 14.4016 26.7606C14.5644 26.4998 14.6536 26.1922 14.8087 25.9154C14.9495 25.6535 15.1409 25.4385 15.3632 25.2544C15.9331 24.7775 16.6504 24.5613 17.338 24.3543C17.4128 24.3314 17.4051 24.2308 17.338 24.2079C16.6581 23.954 15.9331 23.8774 15.2158 23.8614C14.845 23.8545 14.4753 23.8694 14.1057 23.8854C13.7503 23.9003 13.3806 23.9003 13.0407 24.0307C12.6996 24.1622 12.3817 24.3692 12.056 24.5464C11.7755 24.7077 11.4575 24.8461 11.2573 25.1148C11.0802 25.3539 11.013 25.6844 10.7765 25.8765C10.5323 26.0766 10.1923 26.0766 9.92607 26.2379C9.63782 26.4232 9.45299 26.7228 9.29676 27.0224C9.10423 27.3918 8.9425 27.7761 8.79398 28.1684C8.77968 28.1684 8.77198 28.1764 8.75657 28.1833C8.3055 28.6224 7.95124 29.1531 7.7136 29.7375C7.58818 30.0371 7.50676 30.3528 7.44735 30.6753C7.41105 30.8525 7.37364 31.0287 7.28453 31.1831C7.20311 31.3294 7.0997 31.4678 7.01828 31.6131C6.87856 31.867 6.78174 32.1437 6.73003 32.4365C6.72233 32.4056 6.72233 32.3828 6.71573 32.3519C6.65632 32.0214 6.60461 31.6908 6.61891 31.3523C6.63432 31.0138 6.68603 30.6833 6.69263 30.3528C6.70033 30.0211 6.64862 29.7066 6.56721 29.391C6.5012 29.1142 6.44179 28.7917 6.27126 28.5607C6.26356 28.5527 6.26356 28.5447 6.25695 28.5447C6.26356 28.5218 6.27126 28.4989 6.25695 28.476C6.24925 28.468 6.24155 28.4532 6.23495 28.4452C6.23495 28.4371 6.22725 28.4371 6.22725 28.4303C6.22725 28.4303 6.22725 28.4303 6.22725 28.4223C6.22725 28.4223 6.22725 28.4223 6.22725 28.4143C6.21955 28.3994 6.21955 28.3914 6.21955 28.3754C6.21955 28.3685 6.21955 28.3605 6.21185 28.3605C6.21185 28.3605 6.21185 28.3605 6.21185 28.3525C6.21185 28.3377 6.21185 28.3296 6.21185 28.3148C6.21185 28.3068 6.21185 28.2988 6.21185 28.2919V28.2839C6.21185 28.2759 6.21955 28.261 6.21955 28.253C6.21955 28.245 6.21955 28.245 6.22725 28.237V28.2301C6.23495 28.2141 6.23495 28.1913 6.23495 28.1764C6.37467 27.5302 6.5078 26.8692 6.5595 26.207C6.58261 26.207 6.59691 26.1922 6.61121 26.1693C6.76744 25.9074 6.93027 25.6386 7.03368 25.3459C7.1448 25.0382 7.17451 24.7077 7.16681 24.3772C7.16681 24.0307 7.1371 23.6933 7.18881 23.3467C7.23282 23.0162 7.32963 22.7006 7.46276 22.4009C7.79501 22.2706 8.17237 22.3701 8.52003 22.3083C8.86109 22.2466 9.17904 22.0853 9.45959 21.8932C9.97778 21.5398 10.3991 21.032 10.6654 20.4476C10.8139 20.1251 10.8953 19.7934 10.969 19.44C11.0428 19.0706 11.1462 18.7252 11.331 18.3947C11.6941 17.7406 12.2486 17.2259 12.8262 16.7868C12.9956 16.6564 13.1661 16.5329 13.3366 16.4105C13.5061 16.287 13.6766 16.1646 13.8537 16.064C14.2388 15.857 14.6679 15.8181 15.0969 15.7792C15.164 15.7723 15.2081 15.6717 15.1343 15.6339C15.0892 15.6111 15.0529 15.5951 15.0078 15.5722C15.0012 15.5642 14.9858 15.5562 14.9781 15.5562C14.3202 15.2794 13.5875 15.3572 12.9076 15.5184C12.4928 15.6111 12.0857 15.7334 11.6721 15.8101C11.4575 15.849 11.243 15.8718 11.0285 15.8878C10.8205 15.8947 10.6214 15.9027 10.4211 15.9485C10.0438 16.0331 9.69613 16.2332 9.37157 16.4414C9.04592 16.6415 8.72797 16.8645 8.46832 17.1481C7.93583 17.7406 7.7136 18.5709 7.55847 19.3474C7.46276 19.8243 7.40335 20.3092 7.37364 20.7941C7.35934 21.0469 7.35934 21.2939 7.35934 21.5478C7.36594 21.7937 7.39564 22.0544 7.35164 22.3003C7.34394 22.3083 7.33623 22.3163 7.32963 22.3243C7.19651 22.616 7.0997 22.9236 7.05569 23.2392C7.00398 23.5698 7.01168 23.9003 7.01828 24.2308C7.02598 24.5693 7.01828 24.9158 6.91486 25.2384C6.83345 25.4842 6.70803 25.7153 6.57491 25.9383C6.57491 25.8845 6.58261 25.8228 6.58261 25.769C6.58921 25.3378 6.5375 24.9158 6.5078 24.4847C6.47809 24.0547 6.47809 23.6384 6.5078 23.2084C6.5375 22.7932 6.5529 22.3849 6.49349 21.9698C6.43408 21.5707 6.30096 21.2013 6.13043 20.8319C6.13043 20.8238 6.12383 20.817 6.12383 20.809C6.15354 20.801 6.17554 20.7781 6.17554 20.7392C6.24925 19.5407 6.58261 18.3558 7.1371 17.3025C7.41765 16.7719 7.751 16.2721 8.12837 15.8181C8.3209 15.5951 8.52003 15.3801 8.72797 15.1799C8.88309 15.0335 9.03052 14.9032 9.14164 14.7259C9.17134 14.7419 9.21535 14.7419 9.23845 14.703C9.26706 14.7419 9.32647 14.7488 9.35617 14.695C9.36387 14.6721 9.37818 14.6573 9.38588 14.6413C9.65982 14.5646 9.94807 14.5726 10.2363 14.5646C10.5697 14.5566 10.9096 14.5566 11.243 14.5498C11.5686 14.5418 11.9009 14.5418 12.2266 14.5338C12.5148 14.5338 12.8107 14.5338 13.099 14.5029C13.3663 14.472 13.6326 14.4182 13.8768 14.3027C14.1431 14.1804 14.3422 13.9802 14.5424 13.7652C14.9264 13.3421 15.3489 12.9807 15.844 12.7039C16.3985 12.3963 17.0135 12.2041 17.634 12.1504C17.7088 12.1572 17.7374 12.0269 17.6494 12.012ZM11.8569 5.21412C11.7315 5.62126 11.627 6.03641 11.627 6.45956C11.627 7.00508 11.8118 7.52888 11.9086 8.05839C11.9603 8.3363 11.9823 8.61992 11.9526 8.90469C11.9229 9.17345 11.8569 9.44335 11.7678 9.70411C11.6787 9.966 11.5829 10.2279 11.4575 10.4738C11.3387 10.7117 11.1693 10.9038 10.9547 11.0502C10.7402 11.2046 10.5103 11.335 10.3111 11.5122C10.2143 11.5969 10.1329 11.6883 10.0515 11.789C10.1406 11.4425 10.1769 11.0891 10.1769 10.7277C10.1769 10.4818 10.1186 10.2279 10.1483 9.98888C10.1769 9.74299 10.3111 9.52798 10.4289 9.31984C10.6588 8.9127 10.8579 8.48154 10.9393 8.01264C10.9833 7.75875 11.0064 7.50486 11.0505 7.25898C11.0945 7.02796 11.1759 6.79808 11.265 6.57507C11.3684 6.30517 11.4938 6.05128 11.6126 5.79052C11.6721 5.65214 11.7381 5.51376 11.7975 5.37538C11.8052 5.33649 11.8272 5.27474 11.8569 5.21412ZM9.67412 11.5042C9.55641 11.2652 9.47499 11.0044 9.42988 10.7345C9.34187 10.197 9.40788 9.62748 9.62242 9.13571C9.74124 8.87381 9.88866 8.62793 10.0075 8.36603C10.1252 8.10528 10.2 7.82851 10.2583 7.55175C10.3254 7.26698 10.3848 6.97421 10.496 6.70545C10.5994 6.46757 10.7325 6.24455 10.8876 6.04442C11.1242 5.73677 11.3981 5.47488 11.6864 5.22099C11.6644 5.26787 11.6501 5.32163 11.627 5.35937C11.5169 5.60525 11.4058 5.85228 11.2947 6.09817C11.1913 6.32919 11.0945 6.55906 11.013 6.79808C10.9316 7.05197 10.8799 7.30587 10.8436 7.56662C10.8062 7.8125 10.7765 8.06639 10.7105 8.30542C10.6357 8.5513 10.5323 8.78918 10.4145 9.0202C10.3034 9.23521 10.1703 9.43535 10.0812 9.65836C9.98548 9.89738 9.99208 10.1273 10.0152 10.3811C10.0592 10.8969 10.0152 11.4116 9.86666 11.9045C9.81495 11.773 9.74124 11.6346 9.67412 11.5042ZM5.73107 7.05884C6.00501 7.21323 6.28666 7.37448 6.5078 7.6055C6.76744 7.86626 6.87856 8.18991 6.95227 8.5433C7.03368 8.93557 7.1074 9.33585 7.16681 9.73498C7.29993 10.5504 7.38904 11.3658 7.44735 12.1881C7.46936 12.5804 7.47706 12.9727 7.41105 13.3569C7.35164 13.6726 7.25482 13.9802 7.1151 14.265C6.82575 14.8723 6.38238 15.3949 5.85759 15.7952C5.9313 15.1719 6.07872 14.5566 6.28666 13.9654C6.5078 13.3341 6.86316 12.7039 6.64092 12.012C6.5375 11.6883 6.36037 11.3967 6.24925 11.0731C6.13813 10.7425 6.07212 10.3892 6.05672 10.0358C6.03472 9.34271 6.23495 8.6508 6.11613 7.9669C6.05672 7.64324 5.9313 7.32874 5.70136 7.09772C5.64305 7.03596 5.58364 6.99022 5.52423 6.93647C5.59134 6.98221 5.66506 7.0211 5.73107 7.05884ZM5.15457 14.0729C4.86632 13.4496 4.44385 12.896 4.21501 12.2419C4.10389 11.9194 4.05219 11.5808 4.08189 11.2355C4.1182 10.8809 4.22932 10.5355 4.37784 10.2119C4.52526 9.88938 4.70349 9.58974 4.89493 9.28896C5.08086 8.99733 5.25799 8.69769 5.3537 8.35917C5.50993 7.79764 5.3317 7.18235 4.92463 6.79808C5.15457 6.89758 5.38341 7.01309 5.56824 7.19722C5.78278 7.40536 5.90159 7.68213 5.961 7.9749C6.09413 8.64394 5.89389 9.31984 5.9093 9.99688C5.9159 10.3354 5.96761 10.6739 6.06442 10.9964C6.16014 11.3041 6.30866 11.5888 6.43408 11.8885C6.56721 12.211 6.61121 12.5427 6.5309 12.888C6.45609 13.2117 6.30866 13.5193 6.19754 13.827C5.961 14.472 5.80588 15.141 5.72447 15.8341C5.59794 15.2108 5.41311 14.6264 5.15457 14.0729ZM4.47356 26.438C4.35584 26.3923 4.21501 26.3385 4.1413 26.2299C4.05989 26.1075 4.08959 25.9463 4.03018 25.8148C3.93337 25.5849 3.70453 25.4774 3.49769 25.3847C3.25345 25.2692 3.03121 25.1228 2.85409 24.9078C2.43932 24.4161 2.30619 23.7539 2.3282 23.1157C2.3359 22.7932 2.39531 22.4627 2.26879 22.1551C2.15877 21.8852 1.95854 21.6473 1.7583 21.4471C1.44805 21.1395 1.08609 20.8936 0.715327 20.6706C1.1741 20.7472 1.64058 20.8707 2.06195 21.0857C2.27649 21.1932 2.48332 21.3248 2.66155 21.486C2.84638 21.6553 2.98721 21.8623 3.10493 22.0853C3.16434 22.1928 3.22375 22.3083 3.29746 22.409C3.38657 22.5313 3.48229 22.6388 3.5637 22.7623C3.71883 23.0002 3.81565 23.277 3.92676 23.5309C4.1633 24.0844 4.39214 24.6391 4.62868 25.1846C4.7475 25.4614 4.89493 25.7072 5.06545 25.9531C5.21398 26.1693 5.36911 26.3923 5.36911 26.6691C5.06545 26.6691 4.76951 26.5536 4.47356 26.438ZM5.48022 26.3763C5.43512 26.2539 5.37681 26.1384 5.30199 26.0229C5.15457 25.7999 4.99174 25.5849 4.87292 25.3459C4.7398 25.0771 4.62868 24.7923 4.51096 24.5156C4.38554 24.2228 4.25902 23.9231 4.1336 23.6315C4.01478 23.3548 3.91136 23.07 3.77054 22.8012C3.63081 22.5393 3.42288 22.3392 3.28316 22.0773C3.15664 21.8474 3.03121 21.6313 2.84638 21.4391C2.67586 21.263 2.47672 21.1246 2.26219 21.0091C1.7363 20.7163 1.1301 20.5711 0.545899 20.4865C0.508493 20.4785 0.486489 20.5013 0.478788 20.5242C0.442482 20.5093 0.412777 20.4865 0.375371 20.4705C0.989273 20.4705 1.59657 20.5162 2.20278 20.6168C2.75067 20.7095 3.39318 20.801 3.80794 21.2241C4.02248 21.4471 4.1182 21.7468 4.26672 22.0167C4.41415 22.2934 4.62868 22.5233 4.82892 22.7463C5.03575 22.9854 5.22828 23.2232 5.37681 23.508C5.51653 23.7848 5.61995 24.0844 5.67936 24.392C5.74647 24.7386 5.74647 25.1 5.68706 25.4465C5.61995 25.761 5.52423 26.0618 5.48022 26.3763ZM14.8967 25.5071C14.7119 25.7381 14.5941 26.0069 14.4753 26.2768C14.3499 26.5764 14.1948 26.8303 13.9505 27.0385C13.7063 27.2375 13.4324 27.4147 13.1661 27.576C12.8845 27.7452 12.5819 27.8836 12.2706 27.9763C11.9526 28.0689 11.6204 28.1066 11.287 28.1226C10.562 28.1524 9.83695 28.0918 9.11193 28.0609C9.22305 27.7841 9.59271 27.7452 9.83695 27.6606C10.0812 27.576 10.2957 27.4147 10.4883 27.2375C10.6808 27.0613 10.8656 26.8612 11.0725 26.6999C11.1759 26.6222 11.287 26.5536 11.4058 26.4998C11.5609 26.438 11.7238 26.4152 11.8866 26.3992C12.0417 26.3763 12.1968 26.3534 12.3454 26.2917C12.4851 26.2299 12.6039 26.1533 12.7227 26.0538C12.9736 25.8616 13.1958 25.6386 13.4544 25.4614C13.9648 25.1148 14.5424 24.885 15.1343 24.7157C15.6371 24.5693 16.1476 24.4767 16.6581 24.392C16.2653 24.5236 15.8814 24.6848 15.5337 24.9158C15.2972 25.092 15.0749 25.2841 14.8967 25.5071ZM9.38588 27.1917C9.519 26.923 9.66752 26.6462 9.89636 26.4529C10.1406 26.2539 10.4443 26.2299 10.7171 26.0995C10.9833 25.9691 11.1099 25.7072 11.2353 25.4534C11.3024 25.323 11.3761 25.1926 11.4795 25.092C11.5983 24.9765 11.7381 24.8998 11.8789 24.8232C12.1968 24.6459 12.5148 24.4538 12.8405 24.2925C13.1804 24.1233 13.5215 24.0775 13.8911 24.0615C14.2388 24.0467 14.5864 24.0307 14.9341 24.0307C15.5777 24.0307 16.229 24.0695 16.8572 24.2388C15.7185 24.4161 14.5424 24.6391 13.5435 25.2544C13.2772 25.4156 13.033 25.6158 12.7964 25.8228C12.6699 25.9303 12.5445 26.0378 12.4037 26.1155C12.2486 26.2002 12.0857 26.2459 11.9163 26.2688C11.7535 26.2917 11.5906 26.2997 11.4355 26.3534C11.309 26.3923 11.1913 26.4529 11.0802 26.5307C10.8579 26.6839 10.6731 26.8761 10.4806 27.0613C10.2517 27.2843 10.0075 27.4765 9.70383 27.5611C9.5047 27.6149 9.26706 27.6766 9.11193 27.8219C9.18564 27.5988 9.28246 27.3918 9.38588 27.1917ZM14.0166 15.8181C13.6689 15.9485 13.3729 16.1955 13.0704 16.4105C12.4785 16.8405 11.8932 17.3105 11.4498 17.9098C11.2496 18.1866 11.0802 18.4862 10.9613 18.8099C10.8282 19.1781 10.7919 19.5704 10.6808 19.9478C10.4883 20.578 10.1186 21.1395 9.62242 21.5626C9.32647 21.8165 8.97881 22.0315 8.60145 22.1322C8.39461 22.1859 8.18778 22.1928 7.97984 22.1859C7.85442 22.1859 7.729 22.1859 7.61018 22.2008C7.65529 21.9012 7.84012 21.6553 8.03155 21.4391C8.25379 21.1852 8.49033 20.9474 8.69056 20.6786C9.10423 20.1251 9.42328 19.5098 9.65982 18.8556C9.77094 18.54 9.89636 18.2095 10.1406 17.9796C10.266 17.8561 10.4145 17.7714 10.5543 17.6639C10.6808 17.5633 10.7985 17.4558 10.9096 17.3403C11.1319 17.1104 11.331 16.8485 11.5609 16.6175C11.8118 16.3636 12.0934 16.1795 12.4268 16.064C13.0407 15.849 13.6986 15.7334 14.3576 15.7106C14.2465 15.7495 14.1354 15.7792 14.0166 15.8181ZM7.50676 21.0937C7.51446 20.6626 7.55847 20.2394 7.62558 19.8094C7.69159 19.3943 7.78071 18.986 7.89843 18.5869C8.00955 18.2175 8.14267 17.8561 8.3572 17.5404C8.57174 17.2179 8.86109 16.964 9.17904 16.749C9.497 16.5329 9.82925 16.3179 10.1846 16.1795C10.3694 16.1109 10.5543 16.064 10.7545 16.0571C10.9613 16.0411 11.1693 16.0411 11.3684 16.0182C11.7678 15.9725 12.1528 15.8718 12.5445 15.7723C13.1518 15.6179 13.8097 15.4647 14.4313 15.5642C13.824 15.5871 13.2255 15.6797 12.6413 15.849C12.3003 15.9485 11.9823 16.08 11.7018 16.3098C11.4421 16.526 11.2276 16.7948 11.0064 17.0486C10.8953 17.1722 10.7842 17.2945 10.6654 17.402C10.54 17.5175 10.3914 17.6182 10.2517 17.7177C9.97007 17.9247 9.78524 18.1866 9.65212 18.5171C9.519 18.8476 9.40788 19.1781 9.25275 19.5018C9.09763 19.8323 8.9128 20.1399 8.70486 20.4396C8.47602 20.7701 8.20208 21.0549 7.93583 21.3545C7.76531 21.5478 7.61018 21.7628 7.52877 22.0087C7.52877 21.924 7.52217 21.8314 7.52217 21.7468C7.49906 21.5238 7.49906 21.3088 7.50676 21.0937ZM9.75554 13.7881C9.91837 13.5033 10.0812 13.2117 10.3034 12.9727C10.7028 12.5346 11.243 12.2888 11.7975 12.1652C12.1011 12.0966 12.4037 12.0886 12.715 12.0577C13.0253 12.0269 13.2915 11.9194 13.5732 11.773C13.8614 11.6197 14.1497 11.4962 14.483 11.4653C14.8087 11.4345 15.1343 11.4653 15.4523 11.5351C15.9254 11.6346 16.3764 11.8039 16.8352 11.9502C16.3764 11.9582 15.9177 11.9811 15.4666 12.0269C15.1563 12.0577 14.8384 12.1035 14.527 12.1572C14.2388 12.2041 13.9505 12.2579 13.6766 12.3734C13.4247 12.4809 13.2255 12.665 13.0033 12.8343C12.759 13.0196 12.4851 13.111 12.1968 13.1877C11.6204 13.3421 11.0428 13.4953 10.4806 13.7035C10.1186 13.8338 9.74784 14.0111 9.47499 14.2959C9.56301 14.1266 9.65982 13.9574 9.75554 13.7881ZM14.6976 13.3878C14.483 13.604 14.2982 13.8498 14.0617 14.034C13.8317 14.2032 13.5655 14.2959 13.2915 14.3416C13.011 14.3874 12.7293 14.3954 12.4411 14.3954C12.1077 14.4034 11.7678 14.4034 11.4355 14.4114C11.0582 14.4182 10.6808 14.4182 10.3034 14.4263C10.0438 14.4263 9.77754 14.4182 9.519 14.4651C9.76324 14.1804 10.1109 14.0031 10.4509 13.8807C10.9833 13.6806 11.5455 13.5342 12.0934 13.381C12.3674 13.3032 12.6413 13.2426 12.8922 13.0962C13.1287 12.9578 13.3135 12.7577 13.5435 12.6113C13.7877 12.458 14.076 12.3963 14.3499 12.3505C14.6602 12.2956 14.9638 12.2499 15.2741 12.211C15.8517 12.1424 16.4282 12.1115 17.0058 12.1115C16.1476 12.3116 15.3412 12.7497 14.6976 13.3878Z" fill="black"/>
</g>
<mask id="mask1_199_2015" style="mask-type:luminance" maskUnits="userSpaceOnUse" x="13" y="40" width="33" height="18">
<path d="M13.9703 40.3921H45.5148V57.0334H13.9703V40.3921Z" fill="white"/>
</mask>
<g mask="url(#mask1_199_2015)">
<path d="M45.228 48.9854C44.6438 48.7006 44.0596 48.4159 43.482 48.1322C43.2014 47.9939 42.9132 47.8475 42.6392 47.6931C42.395 47.5547 42.1508 47.3934 41.9065 47.2551C41.4114 46.9703 40.8933 46.7862 40.3157 46.825C39.7535 46.8628 39.2133 47.0709 38.7182 47.3397C38.1483 47.6553 37.6378 48.0934 37.0239 48.3084C36.9942 48.3164 36.9799 48.3392 36.9799 48.3621C36.3957 48.4467 35.8038 48.3861 35.2185 48.4239C34.9237 48.4399 34.6343 48.4856 34.3538 48.5851C34.1909 48.6389 34.0358 48.7086 33.8796 48.7773C33.9841 48.6698 34.0798 48.5542 34.1832 48.4467C34.3681 48.2477 34.5529 48.0476 34.7894 47.9092C35.0117 47.7777 35.2339 47.6782 35.4264 47.4941C35.5893 47.3397 35.7224 47.1476 35.8478 46.9554C36.4397 46.7701 37.0096 46.5243 37.5498 46.2098C37.9712 45.9627 38.5411 45.6254 38.5631 45.0558C38.5697 44.8866 38.5114 44.7253 38.5257 44.564C38.5334 44.4485 38.5774 44.341 38.6445 44.2404C38.7776 44.0402 38.9701 43.887 39.1396 43.7177C39.3101 43.5405 39.4509 43.3483 39.5323 43.1105C39.6137 42.8714 39.6423 42.6107 39.6423 42.3568C39.6578 41.7564 39.5389 41.1033 39.7909 40.5338C39.8283 40.4423 39.7172 40.3726 39.6655 40.4572C39.3618 40.9032 38.9844 41.2955 38.5477 41.6031C38.2077 41.841 37.8083 42.064 37.6378 42.4792C37.5938 42.5947 37.5718 42.7102 37.5498 42.8337C37.5201 42.9869 37.4607 43.1105 37.3573 43.226C37.179 43.449 36.9876 43.664 36.8094 43.887C36.6322 44.11 36.4617 44.333 36.2989 44.564C36.1438 44.779 35.9886 45.0021 35.8698 45.2399C35.641 45.7168 35.5519 46.3173 35.8555 46.7782C35.8555 46.7782 35.8555 46.7782 35.8555 46.7862C35.8258 46.7782 35.7884 46.7782 35.7664 46.817C35.6256 47.032 35.4782 47.2471 35.2856 47.4243C35.0931 47.6016 34.8488 47.6931 34.6343 47.8315C34.4198 47.9698 34.2503 48.1551 34.0798 48.3472C33.8873 48.5542 33.7025 48.7624 33.5099 48.9705C33.5099 48.9705 33.5099 48.9705 33.5022 48.9774C33.4956 48.9854 33.4879 48.9934 33.4802 49.0003C33.4736 49.0083 33.4659 49.0243 33.4659 49.0312C32.8586 49.3857 32.1347 49.4166 31.4614 49.5469C30.6549 49.7002 29.8925 50.0307 29.0861 50.1622C28.6944 50.2308 28.2874 50.2388 27.8957 50.1622C27.636 50.0467 27.3698 49.9232 27.1113 49.8008C26.5854 49.5469 26.076 49.2542 25.5578 48.9934C25.077 48.7544 24.5742 48.5703 24.056 48.4399C24.2706 48.4319 24.4928 48.4239 24.7074 48.409C25.0913 48.3861 25.4764 48.3553 25.8614 48.3312C26.0683 48.4319 26.2971 48.4856 26.5194 48.4628C27.207 48.839 27.9397 49.1387 28.7087 49.2393C29.5009 49.3388 30.337 49.2164 31.0246 48.7773C31.1951 48.6698 31.3503 48.5474 31.4757 48.3861C31.6011 48.2237 31.7056 48.0396 31.8607 47.9092C32.1567 47.6553 32.5561 47.5627 32.8817 47.3546C33.4736 46.9863 33.9093 46.4019 34.1755 45.7477C34.3318 45.3715 34.4198 44.9792 34.4649 44.5709C34.5089 44.11 34.4275 43.6022 34.642 43.1722C34.686 43.0796 34.5683 43.0098 34.5166 43.0944C34.3021 43.4101 34.0941 43.7326 33.8796 44.0483C33.6805 44.3479 33.4956 44.6555 33.2217 44.8866C32.9631 45.1096 32.6595 45.2937 32.3712 45.471C32.0819 45.6551 31.7936 45.8243 31.4834 45.9627C31.1577 46.1091 30.8178 46.2018 30.4701 46.2475C30.1071 46.2944 29.7517 46.2944 29.3897 46.3241C28.7901 46.363 28.1619 46.4705 27.6734 46.8548C27.4369 47.0481 27.2664 47.3008 27.0815 47.5398C26.9044 47.7777 26.7042 48.0167 26.4159 48.0934C26.3939 48.1014 26.3785 48.1162 26.3708 48.1391C26.3642 48.1391 26.3565 48.1322 26.3422 48.1391C26.1717 48.1551 26.0012 48.17 25.824 48.178C25.8163 48.178 25.8086 48.17 25.802 48.17C25.7866 48.17 25.78 48.178 25.7646 48.178C24.034 48.3164 22.266 48.409 20.5641 48.0007C20.1504 47.9012 19.7433 47.7468 19.3208 47.6393C19.2108 47.5856 19.0997 47.5318 18.9886 47.4861C18.1007 47.0938 17.1689 46.7942 16.3173 46.3241C17.4197 46.5403 18.5518 46.5471 19.6542 46.3321C19.6685 46.355 19.6839 46.371 19.7136 46.371C20.069 46.3939 20.3572 46.6558 20.6675 46.809C21.0008 46.9703 21.3628 47.0481 21.7259 47.032C21.8953 47.024 22.0735 47.0012 22.2363 46.9394C22.3992 46.8788 22.5169 46.7633 22.6434 46.6398C22.7688 46.5174 22.9019 46.4168 23.0725 46.371C23.2342 46.3241 23.4124 46.3173 23.5819 46.3241C23.9152 46.3321 24.2409 46.355 24.5665 46.2784C24.8845 46.2018 25.1881 46.0554 25.461 45.8632C26.0309 45.471 26.4753 44.9174 26.9044 44.3639C27.2367 43.9327 27.57 43.4947 27.9617 43.1253C28.0431 43.0944 28.1245 43.0636 28.2059 43.0338C28.2653 43.0098 28.2653 42.9332 28.2356 42.9023C28.3391 42.8257 28.4425 42.7491 28.5536 42.6793C28.635 42.6255 28.5613 42.4952 28.4799 42.5489C27.3775 43.2328 26.12 43.5027 24.8471 43.5096C24.1672 43.5176 23.4861 43.4799 22.8128 43.5565C22.5103 43.5874 22.1769 43.6331 21.9107 43.8024C21.6521 43.9636 21.4442 44.2095 21.2297 44.4257C20.6829 44.9792 20.1427 45.5476 19.6102 46.1251C19.5871 46.148 19.5871 46.1789 19.5948 46.2018C18.5815 46.3939 17.5308 46.4019 16.5176 46.2166C16.5176 46.1789 16.4956 46.14 16.4439 46.14C16.1842 46.132 15.9334 46.0634 15.6968 45.9399C15.6891 45.933 15.6814 45.933 15.6737 45.933C15.6594 45.925 15.6451 45.909 15.6297 45.9021C15.3558 45.702 15.0972 45.471 14.875 45.2091C14.6605 44.9563 14.4833 44.6555 14.1951 44.4943C14.1137 44.4485 14.0389 44.5789 14.1203 44.6247C14.3799 44.771 14.5427 45.0409 14.7342 45.2708C14.9267 45.5018 15.1346 45.702 15.3635 45.8861C15.83 46.2635 16.3625 46.5551 16.9026 46.801C17.5606 47.1018 18.2482 47.3477 18.9149 47.6393C18.8918 47.6782 18.9072 47.732 18.9589 47.74C19.07 47.7548 19.1734 47.7777 19.2768 47.8086C19.6465 47.9859 20.0019 48.1929 20.3418 48.4399C20.9337 48.8699 21.4442 49.4006 21.947 49.9312C21.9404 49.9472 21.9404 49.9701 21.9547 49.985C22.0955 50.2846 22.0361 50.6311 21.9767 50.9468C21.9184 51.2613 21.881 51.5689 21.9107 51.8926C21.9701 52.5307 22.2286 53.1231 22.5323 53.6687C22.8282 54.1993 23.1682 54.7757 23.6787 55.1062C23.9372 55.2755 24.2189 55.383 24.5071 55.4916C24.8174 55.614 25.1287 55.7444 25.439 55.8908C26.12 56.2064 26.7713 56.5758 27.4072 56.991C27.4589 57.0219 27.5403 56.9681 27.5183 56.9063C27.2741 56.2602 27.163 55.5831 27.0078 54.9141C26.933 54.5836 26.845 54.2531 26.7339 53.9306C26.6228 53.6149 26.4676 53.3221 26.3268 53.0225C26.2531 52.8693 26.1937 52.7149 26.1563 52.5456C26.12 52.3695 26.1277 52.1922 26.1046 52.0149C26.0606 51.6924 25.8614 51.4694 25.6315 51.2544C25.1727 50.8152 24.6545 50.431 24.0857 50.1622C23.4718 49.8694 22.7985 49.7242 22.1252 49.8157C22.1252 49.8157 22.1252 49.8157 22.1252 49.8077C22.1032 49.778 22.0735 49.77 22.0438 49.778C21.607 49.3239 21.1703 48.8699 20.6752 48.4696C20.4606 48.3015 20.2307 48.1471 20.0019 48.0007C20.1273 48.0396 20.2461 48.0785 20.3715 48.1082C20.838 48.2317 21.3111 48.3084 21.7919 48.3621C22.4212 48.4319 23.0571 48.4547 23.693 48.4399C23.693 48.4708 23.7007 48.5085 23.7447 48.5165C24.3069 48.632 24.8471 48.8081 25.373 49.0552C25.8977 49.3011 26.4005 49.6007 26.9264 49.8626C27.1553 49.977 27.3852 50.0856 27.6217 50.1931C27.6217 50.224 27.636 50.2469 27.6734 50.2537C27.7395 50.2697 27.8066 50.2846 27.8726 50.3006C28.6053 50.6231 29.3523 50.9159 30.1148 51.1766C30.7287 51.3928 31.3569 51.5769 31.9862 51.7542C31.9939 51.7542 31.9939 51.7542 32.0005 51.7542C32.0082 51.7542 32.0082 51.7611 32.0159 51.7611C32.3338 51.9154 32.3855 52.3157 32.4592 52.6302C32.5044 52.8075 32.5638 52.9768 32.6672 53.1231C32.7706 53.2684 32.8883 53.3919 33.0148 53.5143C33.5319 54.0449 34.0578 54.5756 34.6717 54.9759C34.9754 55.176 35.3076 55.3601 35.6707 55.407C36.0326 55.4608 36.3803 55.3292 36.7137 55.1909C37.0536 55.0456 37.3936 54.9141 37.7643 54.8523C38.1263 54.7917 38.496 54.7917 38.859 54.8226C39.6952 54.9072 40.5005 55.1909 41.2629 55.5523C41.3069 55.5763 41.3586 55.5603 41.374 55.5065C41.4698 55.1062 41.1441 54.8375 40.923 54.5756C40.6633 54.2759 40.6413 53.8688 40.4488 53.5303C40.264 53.2078 39.99 52.9539 39.7315 52.692C39.4575 52.4232 39.1847 52.1613 38.8733 51.9383C38.5554 51.7073 38.2077 51.538 37.838 51.4305C37.453 51.323 37.0536 51.2693 36.6542 51.1927C36.2472 51.108 35.8698 50.9616 35.4705 50.8461C35.1008 50.7386 34.7234 50.6849 34.3384 50.6997C33.9313 50.7238 33.5253 50.8152 33.1546 50.9845C32.9631 51.0691 32.7849 51.1698 32.6155 51.2853C32.4372 51.4077 32.2524 51.538 32.0302 51.538C32.0082 51.538 31.9862 51.546 31.9785 51.5621C30.8761 51.2613 29.7968 50.8999 28.7384 50.4699C28.6273 50.423 28.5239 50.3772 28.4128 50.3383C28.9981 50.3544 29.5823 50.208 30.1445 50.0387C30.5515 49.9163 30.9575 49.7848 31.38 49.6933C31.7573 49.6156 32.1347 49.5698 32.511 49.4932C32.918 49.4166 33.3251 49.293 33.6805 49.062C33.7025 49.0472 33.7102 49.0311 33.7168 49.0083C33.961 48.8859 34.2129 48.7704 34.4715 48.6858C34.7608 48.5931 35.0634 48.5474 35.367 48.5394C35.8698 48.5165 36.3726 48.5542 36.8765 48.5005C36.8831 48.5394 36.9128 48.5783 36.9645 48.5703C36.9876 48.5623 37.0096 48.5623 37.0316 48.5542C37.5344 48.5474 37.9932 48.8081 38.4222 49.0552C38.8953 49.3319 39.3695 49.5698 39.9163 49.6693C40.4488 49.7619 40.9967 49.7471 41.5215 49.6007C41.7954 49.5241 42.0551 49.4006 42.3213 49.293C42.6095 49.1775 42.8978 49.1547 43.2014 49.1627C43.5414 49.1775 43.8814 49.2004 44.229 49.1935C44.5767 49.1855 44.9177 49.1467 45.2577 49.0929C45.272 49.1158 45.2797 49.0163 45.228 48.9854ZM39.1473 43.4719C38.8656 43.8024 38.4002 44.0643 38.3628 44.556C38.3485 44.7173 38.4002 44.8717 38.4002 45.0329C38.4002 45.1713 38.3551 45.3017 38.2891 45.4092C38.1483 45.6402 37.9195 45.8015 37.6972 45.9399C37.1724 46.2784 36.6102 46.5403 36.0183 46.7404C36.2846 46.1091 36.9579 45.7786 37.2825 45.1862C37.3793 45.0169 37.4233 44.8408 37.453 44.6487C37.4684 44.5332 37.497 44.4257 37.5564 44.325C37.6235 44.2175 37.7192 44.1329 37.8083 44.0402C38.1483 43.6789 38.3782 43.21 38.6225 42.7799C38.903 42.2722 39.1913 41.7724 39.4729 41.2646C39.4575 41.5105 39.4652 41.7564 39.4729 41.9954C39.4872 42.5032 39.4872 43.0636 39.1473 43.4719ZM35.9886 45.3177C36.2252 44.8248 36.5948 44.3868 36.9282 43.9636C37.1053 43.7406 37.2902 43.5256 37.4684 43.3106C37.5344 43.226 37.5938 43.1333 37.6312 43.0258C37.6752 42.9023 37.6829 42.7719 37.7192 42.6416C37.838 42.2024 38.2671 41.9725 38.5994 41.7335C38.9404 41.4956 39.2507 41.2028 39.5092 40.8803C39.5026 40.9261 39.4949 40.973 39.4872 41.0187C39.4575 41.0107 39.4278 41.0187 39.4135 41.0565C39.133 41.5494 38.859 42.0411 38.5774 42.5409C38.4442 42.7799 38.3111 43.0098 38.178 43.2488C38.0526 43.4719 37.9195 43.6869 37.7489 43.879C37.6015 44.0483 37.4233 44.1866 37.3419 44.4096C37.2759 44.6178 37.2759 44.8328 37.1867 45.0329C37.0316 45.3635 36.7577 45.6093 36.5057 45.8552C36.2769 46.0782 36.048 46.3173 35.9072 46.6089C35.7147 46.2018 35.7961 45.71 35.9886 45.3177ZM34.3241 44.2793C34.3164 44.6407 34.2569 45.0021 34.1535 45.3486C33.9544 46.0176 33.5693 46.6478 33.0214 47.0709C32.7332 47.2939 32.4009 47.4163 32.0753 47.5856C31.9125 47.6702 31.7573 47.7777 31.6385 47.9161C31.5054 48.0705 31.402 48.2546 31.2534 48.409C30.9729 48.6938 30.5878 48.8779 30.2182 48.9854C29.8408 49.1009 29.4491 49.1398 29.0498 49.1238C28.1982 49.0929 27.3852 48.7773 26.6305 48.3701C26.8967 48.2935 27.163 48.2169 27.4215 48.1471C27.7626 48.0545 28.0871 47.9939 28.4359 48.0087C28.7681 48.0247 29.0938 48.0316 29.4271 47.947C29.7374 47.8623 30.0256 47.732 30.337 47.6473C30.6549 47.5547 30.9872 47.5398 31.3129 47.4632C31.6011 47.4014 31.8673 47.2779 32.1116 47.1167C32.6155 46.7782 32.9928 46.2944 33.3031 45.7706C33.6805 45.1404 33.9984 44.4794 34.3318 43.8252C34.3241 43.9636 34.3241 44.118 34.3241 44.2793ZM26.4456 48.2477C26.9704 48.1014 27.2147 47.5478 27.5546 47.1624C27.9991 46.6787 28.657 46.5323 29.2709 46.4865C29.9816 46.4328 30.6847 46.4476 31.358 46.1789C31.6759 46.0474 31.9785 45.8861 32.2744 45.702C32.5704 45.5247 32.8663 45.3406 33.1403 45.1324C33.2954 45.0169 33.4362 44.8946 33.5616 44.7402C33.6882 44.5869 33.7916 44.4257 33.9027 44.2633C33.9544 44.1946 33.9984 44.118 34.0501 44.0483C33.8136 44.5103 33.5836 44.9632 33.3328 45.4172C33.0291 45.9627 32.6738 46.4934 32.1787 46.8708C31.9488 47.0481 31.6902 47.1864 31.4097 47.2631C31.0983 47.3477 30.7804 47.3706 30.4624 47.4392C30.1511 47.5089 29.8628 47.6325 29.5603 47.732C29.404 47.7857 29.2489 47.8246 29.0861 47.8475C28.9167 47.8623 28.7538 47.8555 28.5833 47.8475C28.3908 47.8395 28.2059 47.8315 28.0134 47.8555C27.8363 47.8783 27.658 47.9161 27.4886 47.963C27.141 48.0545 26.7933 48.1551 26.4456 48.2477C26.4379 48.2546 26.4379 48.2477 26.4302 48.2477C26.4379 48.2477 26.4379 48.2477 26.4456 48.2477ZM25.6469 45.5247C25.3873 45.7397 25.0913 45.933 24.7734 46.0474C24.4477 46.1629 24.1298 46.1857 23.7898 46.1709C23.4718 46.1629 23.1385 46.148 22.8425 46.2944C22.6951 46.371 22.584 46.4865 22.4575 46.602C22.3178 46.7324 22.1692 46.809 21.9844 46.8479C21.5707 46.9325 21.1186 46.8628 20.7346 46.6787C20.4606 46.5471 20.2164 46.3481 19.9359 46.2635C20.4683 46.0405 21.0008 45.8175 21.5333 45.5865C21.8139 45.463 22.1032 45.3246 22.3992 45.2479C22.6951 45.1633 22.9911 45.1942 23.2936 45.1862C23.8338 45.1713 24.3817 45.0707 24.8625 44.8179C25.373 44.548 25.7503 44.0791 26.2608 43.8104C26.5568 43.6491 26.8813 43.5405 27.1927 43.4181C27.3258 43.3643 27.4666 43.3106 27.5997 43.2568C26.9341 43.9796 26.4159 44.8866 25.6469 45.5247ZM21.1263 44.7333C21.3562 44.5023 21.5773 44.2564 21.8216 44.0402C22.0878 43.8104 22.4058 43.7486 22.7391 43.7029C23.4047 43.6182 24.0857 43.656 24.7514 43.6491C25.3796 43.6491 26.0089 43.5942 26.6305 43.449C26.6602 43.441 26.6899 43.433 26.7196 43.4261C26.6305 43.4638 26.5414 43.5027 26.4522 43.5405C26.186 43.664 25.9352 43.8024 25.6986 43.9865C25.4764 44.1638 25.2695 44.3639 25.0319 44.5252C24.5665 44.8477 24.0043 44.986 23.4487 45.0169C23.1539 45.0329 22.8579 45.0021 22.5686 45.0409C22.2726 45.0867 21.9921 45.2171 21.7182 45.3326C21.0668 45.6093 20.4089 45.8861 19.7576 46.1629C20.2087 45.686 20.6675 45.2091 21.1263 44.7333ZM25.4027 51.2613C25.6238 51.4614 25.8757 51.6764 25.9352 51.9921C25.9649 52.1613 25.9495 52.3386 25.9792 52.5079C26.0089 52.6611 26.0529 52.8075 26.1123 52.9459C26.2377 53.2535 26.4082 53.5383 26.5271 53.8459C26.6448 54.1456 26.7339 54.4612 26.8076 54.7757C26.9341 55.2984 27.0298 55.829 27.1707 56.3448C26.6525 55.4676 26.0232 54.6682 25.2915 53.9843C25.077 53.7842 24.8471 53.592 24.6182 53.4068C24.3883 53.2306 24.1518 53.0385 24.078 52.7377C24.0043 52.4381 24.0637 52.1156 23.9669 51.8148C23.8855 51.5689 23.7227 51.3688 23.5456 51.2075C23.309 50.9925 23.0494 50.8152 22.8128 50.6082C22.5906 50.4081 22.3915 50.1851 22.2066 49.9541C23.397 49.8317 24.5368 50.4699 25.4027 51.2613ZM22.1252 50.893C22.1692 50.6311 22.1989 50.3692 22.1472 50.1085C22.2803 50.2777 22.4289 50.439 22.5763 50.5854C22.7831 50.7844 23.0054 50.9616 23.2276 51.1389C23.4344 51.3002 23.6413 51.4843 23.7678 51.7233C23.9075 52.0001 23.8712 52.3157 23.9009 52.6154C23.9372 52.915 24.0703 53.146 24.2926 53.3381C24.5071 53.5303 24.7437 53.6995 24.9582 53.8917C25.4027 54.2839 25.8163 54.722 26.1937 55.184C26.5634 55.6449 26.8967 56.1447 27.185 56.6673C26.7196 56.3757 26.2377 56.1069 25.7503 55.8679C25.461 55.7215 25.165 55.5911 24.8691 55.4676C24.5808 55.3453 24.2783 55.2446 23.9966 55.0994C23.7161 54.961 23.4784 54.7689 23.2793 54.5218C23.0791 54.2759 22.9096 54.0072 22.7468 53.7304C22.4212 53.1838 22.1329 52.5765 22.0581 51.9303C22.0218 51.5918 22.0658 51.2464 22.1252 50.893ZM37.0833 54.8764C36.7434 54.9987 36.4177 55.184 36.0546 55.2526C35.663 55.3292 35.2933 55.1909 34.9457 54.9987C34.2944 54.6293 33.7465 54.0998 33.2217 53.5612C33.0809 53.4148 32.9334 53.2764 32.8003 53.1151C32.6672 52.9459 32.6001 52.7617 32.5561 52.5536C32.4967 52.3157 32.4372 52.0458 32.2964 51.8457C32.9037 51.9383 33.4956 52.0996 34.0655 52.3306C34.3681 52.4541 34.6563 52.5993 34.938 52.7617C35.2262 52.923 35.5079 53.0991 35.8038 53.2455C36.0998 53.3919 36.41 53.4914 36.7357 53.5451C37.0679 53.592 37.387 53.576 37.7115 53.5383C38.0372 53.4994 38.3551 53.4845 38.6808 53.5692C38.9844 53.6378 39.2727 53.7682 39.5389 53.9374C40.1242 54.2988 40.5896 54.8226 41.0484 55.3453C39.8129 54.7689 38.3925 54.4143 37.0833 54.8764ZM32.918 51.2853C33.236 51.108 33.5836 50.9845 33.939 50.9308C34.2944 50.869 34.6717 50.869 35.0271 50.9388C35.4187 51.0154 35.7961 51.1698 36.1812 51.2773C36.9128 51.4843 37.7115 51.4923 38.3925 51.8697C38.7182 52.0538 39.0141 52.2917 39.2881 52.5536C39.5543 52.7995 39.8283 53.0534 40.0648 53.3381C40.1979 53.4994 40.3157 53.6767 40.3905 53.8768C40.4565 54.0609 40.5082 54.2611 40.5896 54.4372C40.6787 54.6145 40.8118 54.7528 40.945 54.8992C41.0341 54.9987 41.1298 55.1142 41.1738 55.2526C40.3674 54.3297 39.3992 53.3073 38.1043 53.3462C37.7643 53.353 37.4233 53.4308 37.0833 53.4228C36.7357 53.4148 36.3957 53.3381 36.0767 53.2078C35.7587 53.0763 35.4705 52.9001 35.1745 52.7229C34.8863 52.5536 34.598 52.4004 34.2944 52.2688C33.6364 51.9772 32.9334 51.7851 32.2227 51.6844C32.4747 51.5998 32.6892 51.4077 32.918 51.2853ZM43.3269 49.0552C43.0386 49.0392 42.735 49.0311 42.4544 49.1089C42.1805 49.1775 41.9285 49.3239 41.6623 49.4166C41.1375 49.6007 40.5676 49.6544 40.0131 49.5778C39.7469 49.5389 39.4806 49.4703 39.2287 49.3697C38.9767 49.2702 38.7479 49.1387 38.518 49.0003C38.178 48.8013 37.816 48.5931 37.4387 48.4936C37.8457 48.409 38.2594 48.3472 38.6742 48.3472C38.9547 48.3472 39.243 48.3701 39.5169 48.4467C39.7909 48.5165 40.0571 48.624 40.3388 48.6469C40.8933 48.6926 41.4257 48.4856 41.9736 48.4547C42.4841 48.4239 42.9572 48.5931 43.4303 48.7704C43.7636 48.8928 44.1113 49.0163 44.459 49.07C44.0816 49.078 43.7042 49.078 43.3269 49.0552ZM43.5271 48.632C43.0683 48.4628 42.6018 48.2775 42.1068 48.2855C41.5512 48.2935 41.0264 48.5005 40.4719 48.4936C40.1759 48.4856 39.9097 48.393 39.6203 48.3084C39.3541 48.2317 39.0802 48.1929 38.8073 48.186C38.2968 48.17 37.7863 48.2546 37.2825 48.3621C37.7115 48.17 38.0966 47.8932 38.496 47.6393C38.9844 47.3397 39.5092 47.0938 40.0714 47.0012C40.3454 46.9554 40.627 46.9554 40.901 47.0092C41.1815 47.0629 41.44 47.1784 41.692 47.3088C41.9439 47.4472 42.1805 47.6016 42.417 47.74C42.6756 47.8932 42.9495 48.0316 43.2157 48.17C43.7262 48.4239 44.2367 48.6698 44.7472 48.9156C44.3335 48.9317 43.9188 48.7773 43.5271 48.632Z" fill="black"/>
</g>
<path d="M54.0162 36.6886C53.4243 36.4278 52.7961 36.3432 52.1602 36.3501C51.6266 36.3581 51.0875 36.397 50.5617 36.4885C50.0666 36.5731 49.5704 36.7195 49.127 36.9654C48.9125 37.0809 48.7045 37.2273 48.5197 37.3965C48.424 37.4811 48.3426 37.5726 48.2612 37.6733C48.1654 37.7888 48.0763 37.9112 47.9432 37.9958C47.8024 38.0884 47.655 38.1422 47.5064 38.2188C47.3656 38.2886 47.2259 38.3732 47.0994 38.4647C46.9519 38.5733 46.8111 38.6877 46.678 38.8112C47.2402 37.735 47.8178 36.6657 48.3503 35.5815C48.3866 35.5735 48.4317 35.5427 48.424 35.4889C48.424 35.474 48.4163 35.466 48.4163 35.458C48.9565 34.9125 49.511 34.3361 49.7552 33.5744C49.8817 33.1902 49.8817 32.7979 49.8146 32.3976C49.7409 31.9676 49.6518 31.5524 49.6441 31.1213C49.6375 30.7519 49.6595 30.3825 49.7255 30.0211C49.7486 30.0211 49.7706 30.0142 49.7849 29.9834C49.8146 29.9216 49.7926 29.8759 49.7629 29.853C49.7772 29.7912 49.7849 29.7295 49.8003 29.6757C49.8146 29.606 49.7255 29.5373 49.6738 29.5991C49.3856 29.9365 49.1116 30.291 48.8454 30.6604C48.5945 31.0138 48.3206 31.3752 48.1423 31.7675C48.0543 31.9596 47.9949 32.1517 47.9729 32.3667C47.9432 32.6058 47.9432 32.8436 47.9058 33.0747C47.8398 33.4978 47.6913 33.921 47.8101 34.343C47.9135 34.7284 48.1798 35.0429 48.2612 35.4351C47.7661 36.4507 47.2259 37.4503 46.7 38.4578C46.2566 39.303 45.8276 40.1573 45.3391 40.9796C45.5239 40.1573 45.6273 39.319 45.6493 38.4807C45.6724 38.4727 45.6944 38.4498 45.701 38.4109C45.7461 37.9043 45.7979 37.3965 45.8276 36.8807C45.8573 36.4347 45.8573 35.9818 45.7758 35.5358C45.6944 35.1126 45.5239 34.7284 45.2654 34.3899C45.0134 34.0742 44.7032 33.8054 44.4732 33.4669C44.3401 33.2748 44.2587 33.0666 44.207 32.8436C44.1553 32.6206 44.1113 32.3976 43.9627 32.2215C43.9264 32.1746 43.8516 32.2055 43.8373 32.2512C43.6965 32.8059 43.5788 33.3594 43.482 33.921C43.3862 34.4516 43.2894 34.9891 43.2531 35.5278C43.2234 36.0047 43.2894 36.4736 43.5931 36.8498C43.7339 37.0191 43.8967 37.1735 44.0376 37.3428C44.1707 37.504 44.3038 37.6653 44.4369 37.8265C44.7252 38.1582 45.0508 38.4498 45.4865 38.5116C45.4579 39.4722 45.3248 40.4261 45.0805 41.349C45.0805 41.357 45.0805 41.3638 45.0805 41.3719C44.6064 42.1255 44.0739 42.8403 43.438 43.4487C42.7503 44.1018 41.9439 44.5947 41.0781 44.9481C41.7294 44.3556 42.3653 43.6946 42.6535 42.8254C42.6755 42.8403 42.7129 42.8403 42.7349 42.8106C43.2531 42.1415 43.5337 41.2952 43.5414 40.4341C43.5414 39.988 43.4677 39.5569 43.3268 39.1417C43.186 38.7117 42.9935 38.3034 42.8384 37.8803C42.6612 37.4114 42.5358 36.9116 42.6018 36.4038C42.6095 36.3272 42.4984 36.2963 42.461 36.3661C42.2619 36.7892 42.1133 37.2353 42.0319 37.6962C41.9956 37.9352 41.9659 38.1731 41.9582 38.4109C41.9505 38.658 41.9659 38.9107 41.9736 39.1577C41.9802 39.4116 41.9582 39.6644 41.8922 39.9114C41.8328 40.1413 41.7514 40.3643 41.692 40.5953C41.5885 41.0333 41.5665 41.5262 41.736 41.9563C41.8768 42.3257 42.143 42.6413 42.4984 42.7946C42.1804 43.7484 41.418 44.4323 40.7007 45.0704C40.693 45.0784 40.6864 45.0864 40.6864 45.0944C40.2859 45.2557 39.88 45.425 39.5389 45.6937C39.1912 45.9705 38.859 46.4703 38.3782 46.4325C38.2814 46.4245 38.2814 46.5778 38.3782 46.5858C38.8073 46.6246 39.1329 46.2701 39.4212 45.9934C39.7831 45.6548 40.2045 45.4478 40.6567 45.2637C41.1078 45.0864 41.5511 44.9092 41.9802 44.6793C42.4093 44.4403 42.8164 44.1635 43.1937 43.841C43.3345 43.7255 43.4677 43.594 43.6008 43.4716C43.6228 43.4945 43.6525 43.5093 43.6899 43.4945C43.9858 43.3641 44.3401 43.3641 44.6284 43.5025C44.8803 43.618 45.0948 43.825 45.3688 43.8787C45.5239 43.9096 45.6724 43.8867 45.8276 43.8559C45.9827 43.825 46.1378 43.8021 46.3006 43.825C46.6043 43.8559 46.8848 43.9942 47.1588 44.1178C47.425 44.2333 47.699 44.3476 47.9872 44.3945C48.2469 44.4323 48.5054 44.4254 48.7573 44.3785C49.2964 44.2939 49.8146 44.0789 50.3328 43.8947C50.9093 43.6866 51.5232 43.4945 52.1448 43.5791C52.2262 43.5871 52.2779 43.4865 52.2042 43.4407C51.7311 43.1102 51.1613 42.9718 50.6211 42.8026C50.0292 42.6173 49.4296 42.4023 48.8234 42.2639C48.5428 42.2021 48.2469 42.1564 47.9575 42.1713C47.6616 42.1873 47.3887 42.2719 47.1071 42.3485C46.9662 42.3874 46.8188 42.4252 46.6703 42.4252C46.5229 42.4332 46.3898 42.3943 46.2412 42.3405C46.1158 42.2948 45.9827 42.2559 45.8496 42.2639C45.701 42.2719 45.5613 42.3108 45.4282 42.3565C44.9243 42.5098 44.4512 42.7408 44.0145 43.0336C45.0057 41.9185 45.7307 40.5564 46.4261 39.2264C46.4415 39.2344 46.4558 39.2344 46.4712 39.2264C46.9883 39.0342 47.5438 39.2801 48.0609 39.3419C48.3426 39.3808 48.6011 39.3419 48.8751 39.2572C49.149 39.1726 49.4153 39.1269 49.6958 39.096C50.192 39.0502 50.7322 39.0194 51.1392 38.6877C51.3681 38.5036 51.5232 38.2497 51.708 38.0267C51.8786 37.8117 52.0788 37.6275 52.2933 37.4651C52.7884 37.0969 53.3726 36.8739 53.9799 36.827C54.0833 36.835 54.091 36.7195 54.0162 36.6886ZM49.5407 30.1675C49.4593 30.7908 49.4747 31.4289 49.5924 32.0522C49.6738 32.4674 49.7552 32.8665 49.6595 33.2897C49.5781 33.6671 49.401 34.0205 49.1787 34.3281C48.9862 34.6049 48.7573 34.8507 48.5274 35.0898C48.5648 34.7741 48.6165 34.4585 48.7045 34.1588C48.7573 33.9816 48.8234 33.8054 48.9125 33.643C48.9939 33.4898 49.0973 33.3434 49.1413 33.1741C49.193 32.99 49.171 32.7979 49.1633 32.6126C49.1567 32.4365 49.1567 32.2512 49.1567 32.0751C49.1633 31.7137 49.1864 31.3523 49.2601 30.9978C49.2964 30.8136 49.3481 30.6215 49.4153 30.4442C49.4593 30.3528 49.4967 30.2601 49.5407 30.1675ZM48.0026 34.4585C47.9278 34.2663 47.8915 34.0742 47.9058 33.8741C47.9212 33.6511 47.9729 33.436 48.0169 33.213C48.0983 32.7899 48.0543 32.3439 48.2095 31.9436C48.3569 31.5524 48.6242 31.1979 48.8608 30.8594C49.0236 30.6215 49.2007 30.3985 49.3779 30.1675C49.3558 30.2064 49.3415 30.2521 49.3261 30.291C49.1787 30.6604 49.0973 31.0515 49.0599 31.4518C49.0159 31.8589 49.0236 32.2672 49.0379 32.6744C49.0456 32.9134 49.0456 33.1135 48.9345 33.3205C48.8388 33.5047 48.7342 33.6739 48.6605 33.8661C48.49 34.3121 48.4317 34.789 48.38 35.259C48.2755 34.9891 48.1137 34.7352 48.0026 34.4585ZM44.5998 37.7659C44.3335 37.4651 44.0816 37.1426 43.8076 36.8498C43.6448 36.6737 43.5117 36.4816 43.4457 36.2426C43.3862 36.0276 43.3785 35.8045 43.394 35.5815C43.416 35.0738 43.5117 34.566 43.6008 34.0662C43.6822 33.5893 43.7856 33.1135 43.8967 32.6366C43.9044 33.3972 43.9407 34.1977 44.3258 34.8668C44.4292 35.0509 44.57 35.2121 44.6361 35.4123C44.7098 35.6124 44.7175 35.8274 44.7329 36.0424C44.7472 36.2506 44.7626 36.4576 44.8209 36.6577C44.8726 36.835 44.9474 37.0042 45.0288 37.1655C45.2137 37.5429 45.4502 37.9192 45.4799 38.3572C45.1322 38.2886 44.844 38.0347 44.5998 37.7659ZM45.2874 37.3199C45.1025 36.9585 44.9397 36.612 44.9023 36.2048C44.888 35.9967 44.8803 35.7897 44.844 35.5895C44.8066 35.3814 44.7252 35.2041 44.6141 35.028C44.5029 34.8507 44.3918 34.6746 44.3104 34.4745C44.2367 34.2892 44.185 34.0891 44.141 33.8901C44.0739 33.5287 44.0519 33.1593 44.0442 32.7899C44.0519 32.8208 44.0596 32.8596 44.0662 32.8905C44.1113 33.0827 44.1773 33.2668 44.2807 33.428C44.4809 33.7586 44.7549 34.0205 45.0057 34.3052C45.2874 34.6277 45.4942 34.9891 45.5976 35.4123C45.6944 35.8434 45.7021 36.2895 45.679 36.7275C45.657 37.1575 45.6207 37.5806 45.5756 38.0118C45.5096 37.7728 45.3985 37.5429 45.2874 37.3199ZM43.0903 38.9038C43.2454 39.303 43.3565 39.7193 43.3862 40.1573C43.416 40.5804 43.3708 41.0025 43.2608 41.4107C43.1563 41.8099 42.9869 42.1873 42.7569 42.5258C42.8241 42.2559 42.8241 41.9723 42.7723 41.6875C42.7349 41.4794 42.6986 41.2872 42.7129 41.0802C42.7272 40.8801 42.7646 40.6879 42.7789 40.4878C42.8164 39.7421 42.6172 39.0114 42.5204 38.2726C42.4764 37.942 42.461 37.6035 42.4984 37.2661C42.6238 37.8265 42.8835 38.3652 43.0903 38.9038ZM41.8845 41.9105C41.7217 41.4874 41.7437 41.0105 41.8548 40.5804C41.9065 40.3643 41.9802 40.1573 42.0396 39.9423C42.099 39.7261 42.121 39.5031 42.1287 39.2801C42.1287 39.0422 42.1133 38.7963 42.1133 38.5573C42.1133 38.3343 42.1287 38.1033 42.1584 37.8883C42.2102 37.512 42.3059 37.1426 42.4467 36.7892C42.4467 36.827 42.4544 36.8579 42.4544 36.8967C42.4313 36.9036 42.4093 36.9196 42.4093 36.9505C42.2542 37.6881 42.4027 38.4269 42.5281 39.1577C42.5875 39.526 42.6458 39.9034 42.6458 40.2797C42.6458 40.4718 42.6315 40.6651 42.6018 40.8572C42.5798 41.0413 42.5578 41.2255 42.5798 41.4187C42.6095 41.6486 42.6755 41.8648 42.6689 42.1026C42.6689 42.2948 42.6315 42.4789 42.5721 42.6562C42.2542 42.5178 42.0099 42.233 41.8845 41.9105ZM45.2797 42.5795C45.5536 42.4789 45.8419 42.3794 46.1301 42.464C46.2566 42.5029 46.3821 42.5567 46.5152 42.5795C46.6406 42.5944 46.7737 42.5876 46.9002 42.5635C47.1742 42.5178 47.4404 42.4103 47.7133 42.3565C48.0169 42.3028 48.3283 42.3257 48.6242 42.3794C49.2084 42.4869 49.7772 42.6951 50.3471 42.8712C50.7542 42.9947 51.1833 43.1022 51.5826 43.2715C51.1392 43.2028 50.7025 43.1251 50.2591 43.0633C49.9918 43.0256 49.7255 43.0096 49.467 43.0873C49.2084 43.1559 48.9785 43.2795 48.7045 43.2863C48.2018 43.3103 47.721 43.1102 47.2325 43.0176C46.996 42.9718 46.7517 42.9489 46.5075 42.9638C46.2412 42.9867 45.9827 43.0484 45.7164 43.0942C45.4128 43.1479 45.1322 43.1411 44.8286 43.0942C44.6295 43.0633 44.4292 43.0404 44.229 43.0793C44.57 42.8792 44.9177 42.7099 45.2797 42.5795ZM44.866 43.2566C45.1168 43.2943 45.3611 43.3023 45.613 43.2715C45.8639 43.2406 46.1158 43.1788 46.3677 43.1411C46.6263 43.1022 46.8848 43.1102 47.1368 43.1559C47.6099 43.2406 48.0686 43.4259 48.5571 43.4487C48.8014 43.4556 49.0302 43.4098 49.2601 43.3252C49.3713 43.2863 49.489 43.2406 49.6078 43.2177C49.7486 43.1868 49.896 43.1868 50.0446 43.2028C50.3625 43.2257 50.6805 43.2943 50.9907 43.3412L51.5529 43.4327C50.6728 43.5253 49.852 43.9942 48.9862 44.1864C48.7199 44.2481 48.446 44.279 48.1798 44.2561C47.8761 44.2333 47.5956 44.1326 47.3216 44.0171C47.0477 43.8947 46.7671 43.7632 46.4712 43.7026C46.3226 43.6717 46.1829 43.6637 46.0344 43.6786C45.8639 43.7026 45.701 43.7564 45.5316 43.7484C45.1917 43.7404 44.932 43.4556 44.6295 43.3332C44.4952 43.2795 44.3555 43.2566 44.2147 43.2486C44.4292 43.1868 44.6515 43.2257 44.866 43.2566ZM52.4925 37.1735C52.2702 37.3119 52.0634 37.4731 51.8709 37.6573C51.664 37.8574 51.5089 38.0964 51.3241 38.3194C51.1392 38.5425 50.9313 38.7186 50.6585 38.8112C50.4065 38.8958 50.1403 38.9267 49.874 38.9496C49.6078 38.9725 49.3415 38.9953 49.0819 39.0571C48.9345 39.096 48.7937 39.1497 48.6528 39.1886C48.5197 39.2184 48.38 39.2344 48.2392 39.2264C47.8541 39.2035 47.4701 39.0651 47.0928 39.0342C47.4404 38.9725 47.7881 38.8878 48.128 38.7575C48.3569 38.6728 48.5714 38.5733 48.786 38.4647C49.0082 38.3503 49.2227 38.2119 49.445 38.0964C49.6892 37.9729 49.94 37.9352 50.2063 37.8963C50.4362 37.8654 50.6508 37.8117 50.8576 37.7042C51.2867 37.496 51.6563 37.1575 52.1151 37.0042C52.4925 36.8739 52.8918 36.835 53.2846 36.827C53.0107 36.9036 52.7444 37.0191 52.4925 37.1735ZM52.2933 36.7812C52.0711 36.835 51.8566 36.9196 51.6497 37.0351C51.4418 37.1506 51.2504 37.289 51.0501 37.4114C50.8433 37.5429 50.6288 37.6504 50.3922 37.6962C50.148 37.7499 49.896 37.7499 49.6518 37.8265C49.423 37.9043 49.2084 38.0347 49.0005 38.1582C48.7717 38.2886 48.5428 38.4109 48.3052 38.5116C47.8178 38.7186 47.2996 38.8501 46.7737 38.9107C46.8782 38.8112 46.9883 38.7117 47.1071 38.6271C47.3293 38.4578 47.5736 38.3423 47.8244 38.2188C47.9509 38.1582 48.0686 38.0884 48.1721 37.9958C48.2755 37.8963 48.3569 37.7808 48.4537 37.6733C48.6242 37.4892 48.8091 37.3348 49.0159 37.2044C49.874 36.6577 50.9313 36.5422 51.916 36.5125C52.2702 36.4965 52.6333 36.4965 52.9887 36.5502C53.1658 36.5731 53.3363 36.612 53.5057 36.6657C53.0921 36.6657 52.685 36.6806 52.2933 36.7812Z" fill="black"/>
<mask id="mask2_199_2015" style="mask-type:luminance" maskUnits="userSpaceOnUse" x="43" y="16" width="15" height="20">
<path d="M43.5433 16.6771H57.0018V35.4147H43.5433V16.6771Z" fill="white"/>
</mask>
<g mask="url(#mask2_199_2015)">
<path d="M56.7909 25.6697C56.1847 25.5999 55.5697 25.6697 54.9855 25.8309C54.409 25.9922 53.8248 26.2232 53.2989 26.5229C52.8181 26.7996 52.4408 27.1999 52.2559 27.7454C52.2119 27.8758 52.1822 28.0073 52.1668 28.1377C52.1448 28.2761 52.1525 28.4225 52.1448 28.5688C52.1228 28.8685 51.9083 29.0446 51.7157 29.2379C51.279 29.6759 51.0204 30.2752 50.9687 30.8985C50.9687 30.9293 50.983 30.9522 50.9984 30.9602C50.9764 31.0369 50.961 31.1135 50.9544 31.1981C50.9313 30.9442 50.9093 30.6903 50.8796 30.4444C50.8279 29.9218 50.7685 29.3911 50.7168 28.8685C50.6651 28.3756 50.6134 27.8838 50.5022 27.4069C50.4285 27.0924 50.3108 26.7916 50.1777 26.5C50.1843 26.508 50.192 26.508 50.1997 26.508C50.2063 26.5309 50.2294 26.5537 50.2657 26.5537C50.7542 26.5377 51.1976 26.2301 51.4418 25.8001C51.5606 25.5851 51.6343 25.346 51.642 25.1001C51.6497 24.7845 51.4935 24.4849 51.5386 24.1624C51.5606 23.9931 51.62 23.8387 51.6563 23.6774C51.6937 23.5391 51.7235 23.3927 51.7455 23.2543C51.7895 22.9775 51.8126 22.6928 51.8126 22.4091C51.8126 21.8396 51.7157 21.2632 51.5386 20.7245C51.3384 20.1173 51.0358 19.5557 50.6288 19.0708C50.5914 19.0251 50.5176 19.0479 50.5022 19.1017C50.4065 19.6095 50.3031 20.1092 50.1843 20.617C50.1249 20.8709 50.0512 21.1248 49.9995 21.3787C49.9478 21.6166 49.9632 21.8167 50.0512 22.0397C50.1326 22.2547 50.1843 22.4469 50.1546 22.6779C50.1249 22.8929 50.0512 23.093 49.9698 23.2932C49.8883 23.4933 49.8003 23.6935 49.7332 23.9005C49.6672 24.1235 49.6298 24.3545 49.6298 24.5855C49.6298 25.0464 49.7332 25.4924 49.8663 25.9304C49.6815 25.6159 49.489 25.3152 49.3118 25.0007C49.0676 24.5695 48.8905 24.1235 48.764 23.6386C48.6605 23.2314 48.5648 22.8163 48.3349 22.4697C48.3723 22.44 48.3866 22.3702 48.3349 22.3394C48.3206 22.3314 48.3052 22.3165 48.2832 22.3085C48.2832 22.0477 48.1798 21.8007 48.0983 21.5628C48.0026 21.2861 47.9135 21.0093 47.8178 20.7394C47.6396 20.2099 47.4767 19.6552 47.2556 19.1406C47.0554 18.6637 46.7517 18.2794 46.3678 17.9409C46.1829 17.7796 45.9904 17.6332 45.7902 17.4949C45.5833 17.3485 45.3765 17.2021 45.1543 17.0877C44.6878 16.8487 44.119 16.7492 43.6525 17.0488C43.6008 17.0797 43.6008 17.1792 43.6668 17.1872C44.0376 17.241 44.5701 17.3336 44.7329 17.7487C44.8363 18.0335 44.7175 18.3412 44.6658 18.6179C44.6064 18.9176 44.6141 19.2252 44.6515 19.5328C44.7175 20.0555 44.8066 20.617 45.0354 21.0939C45.2797 21.6017 45.7307 21.8853 46.2192 22.0935C46.7968 22.3474 47.425 22.4629 48.0543 22.4469C48.0763 22.4469 48.0906 22.44 48.106 22.424C48.106 22.432 48.1137 22.44 48.1203 22.4549C48.38 22.7854 48.4834 23.2085 48.5791 23.6157C48.6825 24.0308 48.8157 24.4231 49.0082 24.8085C49.401 25.5771 49.9478 26.261 50.2294 27.0924C50.3845 27.5533 50.4505 28.0382 50.5099 28.522C50.2217 28.2372 50.148 27.7992 49.896 27.4835C49.7706 27.3303 49.6078 27.2308 49.4373 27.1461C49.2678 27.0615 49.0753 26.9837 48.9268 26.8534C48.7343 26.6692 48.7574 26.4234 48.6825 26.1843C48.6242 25.9922 48.5054 25.8309 48.3569 25.7006C48.1952 25.5542 48.0092 25.4535 47.8178 25.354C47.6033 25.2465 47.3733 25.131 47.1291 25.1082C46.8331 25.0773 46.5372 25.1928 46.2346 25.1459C45.997 25.1082 45.7759 24.9846 45.613 24.8085C45.635 24.7388 45.5536 24.693 45.5096 24.7159C45.4579 24.7159 45.4062 24.7925 45.4502 24.8463C45.2874 25.6388 45.7087 26.508 46.4118 26.8614C46.612 26.9609 46.8188 26.9918 47.0411 27.0386C47.1511 27.0615 47.2556 27.0993 47.337 27.1919C47.4173 27.2765 47.4624 27.392 47.5141 27.4995C47.6176 27.7145 47.7584 27.8838 47.9652 28.0073C48.1875 28.1377 48.4317 28.2223 48.6682 28.315C49.2381 28.538 49.83 28.7301 50.4362 28.7381C50.4439 28.7381 50.4439 28.745 50.4505 28.745C50.4802 28.7678 50.5099 28.7678 50.532 28.753C50.5771 29.1841 50.6211 29.6222 50.6651 30.0522C50.7619 31.006 50.939 32.0215 50.6354 32.9513C50.3328 33.8743 49.6441 34.597 48.9939 35.2821C48.9268 35.3507 49.0302 35.4582 49.0973 35.3896C49.6815 34.7743 50.2954 34.1281 50.6431 33.3287C50.8279 32.9056 50.9247 32.4515 50.9467 31.9907C50.9544 31.8832 50.9544 31.7676 50.9467 31.6601C50.9544 31.6601 50.9544 31.6601 50.961 31.6601C51.0061 31.6601 51.0281 31.6213 51.0358 31.5824C51.0501 31.4211 51.0721 31.2599 51.1018 31.0986C51.1239 31.0906 51.1393 31.0677 51.1316 31.0369C51.1316 31.006 51.1316 30.9831 51.1316 30.9522C51.1316 30.9442 51.1393 30.9293 51.1393 30.9213C51.1833 30.791 51.2427 30.6675 51.3164 30.5519C51.3681 30.4982 51.4275 30.4444 51.4869 30.4067C51.7157 30.2443 51.9974 30.1837 52.2482 30.0762C52.4925 29.9675 52.6927 29.8143 52.8852 29.637C53.0767 29.4529 53.2626 29.2676 53.5057 29.1533C53.7577 29.0377 54.0393 28.984 54.2902 28.8765C54.5124 28.7839 54.7116 28.6603 54.8975 28.5071C55.2891 28.1914 55.5697 27.7683 55.7402 27.2845C55.8513 26.9689 55.9251 26.6384 56.0956 26.3536C56.177 26.2232 56.2804 26.0917 56.3992 26.0002C56.4278 25.9922 56.4575 25.9842 56.4872 25.9773C56.5247 25.9693 56.539 25.9465 56.539 25.9156C56.6061 25.8847 56.6798 25.8618 56.7535 25.8538C56.8866 25.8149 56.8866 25.6846 56.7909 25.6697ZM46.4195 21.994C45.909 21.7938 45.4205 21.5091 45.1763 20.9864C45.0651 20.7554 44.9991 20.5015 44.9474 20.2476C44.888 19.956 44.8286 19.6552 44.7989 19.3556C44.7692 19.0399 44.7989 18.7483 44.866 18.4487C44.9243 18.1868 44.9771 17.91 44.8726 17.6561C44.7472 17.3565 44.4666 17.2021 44.163 17.1175C44.5029 17.0946 44.844 17.3027 45.0508 17.5875C45.3391 17.9866 45.4282 18.5024 45.5316 18.9793C45.6273 19.4631 45.7539 19.94 46.0641 20.3243C46.3601 20.6937 46.7594 20.9475 47.0411 21.3398C47.2028 21.5708 47.3656 21.8007 47.5802 21.986C47.7067 22.0935 47.8398 22.1861 47.9729 22.2776C47.447 22.2856 46.9145 22.193 46.4195 21.994ZM47.6847 21.8785C47.4844 21.7092 47.337 21.5091 47.1885 21.2941C47.0411 21.0859 46.8782 20.9087 46.6934 20.7394C46.5229 20.5781 46.3381 20.4249 46.1895 20.2476C45.5316 19.4562 45.7682 18.2634 45.1322 17.456C44.9914 17.2718 44.7912 17.1174 44.5701 17.0408C44.7395 17.0717 44.9023 17.1335 45.0585 17.2021C45.4722 17.4102 45.8639 17.7019 46.2192 18.0026C46.5823 18.3103 46.8848 18.6717 47.0851 19.1177C47.3073 19.6015 47.4547 20.1253 47.6253 20.6319C47.721 20.9167 47.8178 21.2094 47.9135 21.4931C47.9872 21.7241 48.0906 21.9631 48.1203 22.209C47.9729 22.1015 47.8244 22.0008 47.6847 21.8785ZM51.6497 22.1472C51.6794 22.6928 51.62 23.2394 51.4715 23.7701C51.4275 23.9165 51.3901 24.0617 51.3758 24.2161C51.3681 24.3694 51.3978 24.5237 51.4352 24.677C51.4935 24.9389 51.5089 25.1768 51.4352 25.4387C51.279 25.9533 50.8136 26.3696 50.2877 26.3993C50.2734 25.9533 50.5022 25.561 50.6068 25.139C50.7102 24.677 50.5474 24.2161 50.6508 23.7541C50.7465 23.316 50.961 22.9238 51.0721 22.4938C51.191 22.0089 51.0875 21.54 50.9984 21.055C50.8873 20.4867 50.7762 19.9171 50.6585 19.3407C51.2504 20.1321 51.6046 21.1317 51.6497 22.1472ZM50.0446 26.2301C50.0809 26.2152 50.1029 26.1843 50.0886 26.1386C49.9478 25.6765 49.8069 25.1996 49.7849 24.7079C49.7772 24.462 49.8003 24.223 49.8663 23.9851C49.9257 23.7769 50.0149 23.5779 50.0963 23.3778C50.2437 23.0084 50.3922 22.6161 50.2811 22.217C50.2217 21.994 50.0963 21.8007 50.1249 21.5628C50.148 21.3169 50.236 21.0711 50.2954 20.824C50.3922 20.4249 50.4802 20.0166 50.5617 19.6095C50.6431 20.0246 50.7245 20.4398 50.8059 20.8549C50.9027 21.3547 51.0578 21.8705 50.939 22.3783C50.8433 22.8014 50.6354 23.1925 50.5254 23.6157C50.4659 23.8387 50.4439 24.0617 50.4659 24.2847C50.4879 24.5306 50.5254 24.7696 50.4802 25.0155C50.3922 25.4924 50.1183 25.9236 50.148 26.4234C50.1029 26.3616 50.0732 26.2918 50.0446 26.2301ZM46.0201 25.2157C46.2643 25.3003 46.5075 25.2843 46.7671 25.2545C46.8925 25.2385 47.0257 25.2237 47.1511 25.2385C47.2919 25.2545 47.425 25.3083 47.5516 25.3689C47.7507 25.4615 47.9575 25.561 48.1358 25.6846C48.3129 25.8081 48.4757 25.9693 48.5494 26.1843C48.6242 26.4073 48.6088 26.6464 48.7497 26.8454C48.9862 27.177 49.4296 27.2148 49.7189 27.4835C49.9555 27.7065 50.0512 28.0382 50.2063 28.3218C49.9698 28.1377 49.7332 27.9604 49.4813 27.8072C49.2821 27.6837 49.0753 27.5922 48.8751 27.4835C48.6902 27.384 48.5351 27.2605 48.3943 27.1073C48.1424 26.8225 47.9278 26.492 47.5956 26.2998C47.2325 26.0997 46.8034 26.1157 46.4415 25.9304C46.1158 25.7612 45.9233 25.4387 45.7682 25.1082C45.8419 25.139 45.931 25.1848 46.0201 25.2157ZM48.9565 28.2223C48.7045 28.1297 48.4537 28.0382 48.2172 27.9295C48.0092 27.83 47.8321 27.7065 47.7133 27.4995C47.6099 27.3154 47.5439 27.1073 47.3656 26.9837C47.1808 26.8534 46.9443 26.8694 46.7374 26.8076C46.3601 26.7001 46.0421 26.4234 45.8419 26.0848C45.657 25.7772 45.5613 25.4158 45.591 25.0613C45.7307 25.3849 45.8936 25.7074 46.1675 25.9304C46.4932 26.1923 46.9002 26.2072 47.2776 26.3307C47.4767 26.3925 47.6473 26.5 47.7947 26.6464C47.9355 26.7847 48.0543 26.946 48.1798 27.0924C48.2986 27.2308 48.424 27.3692 48.5714 27.4767C48.7574 27.615 48.9642 27.6917 49.1633 27.7992C49.5484 28.0073 49.9037 28.2761 50.2514 28.5528C49.8069 28.5071 49.3779 28.3756 48.9565 28.2223ZM51.1833 30.4913C51.2724 30.091 51.4715 29.7217 51.7378 29.422C51.9006 29.2447 52.1085 29.0915 52.2119 28.8685C52.3231 28.6226 52.2702 28.3378 52.3231 28.0691C52.4265 27.5224 52.7444 27.0615 53.1955 26.7687C53.4397 26.6075 53.706 26.484 53.9645 26.3696C54.2385 26.2461 54.5201 26.1386 54.8007 26.0459C55.3266 25.8847 55.8656 25.7841 56.4135 25.8001C56.3992 25.8081 56.3915 25.8149 56.3761 25.8229C55.8293 25.9693 55.3034 26.2072 54.8381 26.5229C54.727 26.5995 54.6158 26.6761 54.5267 26.7767C54.4387 26.8842 54.387 26.9998 54.3496 27.1301C54.3056 27.2605 54.2539 27.376 54.1648 27.4767C54.091 27.5533 53.9942 27.615 53.9051 27.6768C53.7137 27.7912 53.4991 27.8838 53.3143 28.0142C53.1141 28.1606 52.9733 28.3527 52.8698 28.5757C52.7587 28.8067 52.6707 29.0606 52.5222 29.2756C52.3671 29.5146 52.1228 29.653 51.894 29.7983C51.6343 29.9607 51.4055 30.1448 51.235 30.4067C51.2207 30.4216 51.213 30.4444 51.2053 30.4605C51.1976 30.4833 51.191 30.4833 51.1833 30.4913ZM55.7919 26.731C55.6962 27.0226 55.6148 27.3223 55.4663 27.599C55.3409 27.83 55.1857 28.0382 54.9932 28.2223C54.8084 28.4064 54.5938 28.5528 54.3639 28.6683C54.1053 28.7919 53.8248 28.8456 53.5652 28.9531C53.3143 29.0526 53.1064 29.2219 52.9072 29.414C52.6927 29.6222 52.4782 29.8063 52.2042 29.9218C52.0491 29.9835 51.8863 30.0373 51.7312 30.0991C51.7895 30.0522 51.8566 30.0064 51.9226 29.9607C52.1448 29.8223 52.3814 29.6908 52.5442 29.4838C52.6993 29.2916 52.7961 29.0686 52.8918 28.8456C52.9953 28.6146 53.0998 28.3836 53.2912 28.2223C53.4617 28.0759 53.6686 27.9844 53.8611 27.8758C54.0459 27.7763 54.2242 27.6608 54.3419 27.4835C54.4156 27.384 54.453 27.2685 54.4904 27.1461C54.5421 26.9998 54.6158 26.8842 54.7347 26.7847C54.9778 26.5766 55.2814 26.4153 55.5697 26.277C55.7556 26.1923 55.9405 26.1157 56.1319 26.054C55.9845 26.2541 55.8733 26.5 55.7919 26.731Z" fill="black"/>
</g>
<path d="M26.1064 30.9697L25.9744 30.558C25.8072 30.0548 25.5717 29.5744 25.2703 29.117C24.9677 28.6595 24.6025 28.2775 24.1745 27.9687C23.7454 27.6611 23.2614 27.4781 22.7223 27.4198C22.4252 27.3958 22.1062 27.4358 21.7629 27.5387C21.4219 27.6428 21.1919 27.8612 21.072 28.1929L20.2623 30.6952C19.8222 31.9978 19.8277 32.6486 20.2799 32.6486V32.8041H18.876V32.6486C18.9992 32.6486 19.172 32.5068 19.3953 32.2231C19.6209 31.9372 19.8618 31.4111 20.117 30.6449L23.0523 21.7061L22.7399 20.7637H23.9941L27.145 30.3155C27.365 30.956 27.5697 31.5049 27.7611 31.9624C27.9547 32.4198 28.111 32.6486 28.232 32.6486V32.8041H26.3045V32.6486C26.3573 32.6486 26.3749 32.4885 26.3573 32.1682C26.3419 31.848 26.2583 31.4489 26.1064 30.9697ZM23.1359 21.9486L21.2524 27.676C21.4395 27.493 21.6716 27.3763 21.9477 27.3237C22.2228 27.2723 22.4813 27.2585 22.7223 27.2825C23.3384 27.3409 23.8885 27.5593 24.3725 27.9367C24.8566 28.3118 25.2527 28.7624 25.5607 29.2862L23.1359 21.9486Z" fill="black"/>
<path d="M34.7493 32.9413C34.0012 32.9413 33.307 32.7972 32.6678 32.5067C32.0308 32.2139 31.4807 31.8559 31.0175 31.4317C30.5565 31.0085 30.2166 30.6025 29.9965 30.2148L30.3926 28.6869H30.5246C30.5246 28.6869 30.5906 28.8241 30.7227 29.0986C30.8547 29.3731 31.0439 29.7162 31.2904 30.1279C31.539 30.5396 31.8371 30.9513 32.1837 31.363C32.5292 31.7747 32.9164 32.1178 33.3455 32.3923C33.7768 32.6668 34.2444 32.804 34.7493 32.804C34.9364 32.804 35.1729 32.7709 35.4579 32.7034C35.745 32.6336 36.0366 32.5158 36.3336 32.3511C36.6296 32.1842 36.876 31.9612 37.0729 31.6833C37.2721 31.4031 37.3722 31.0565 37.3722 30.6448C37.3722 30.0844 37.2093 29.5927 36.8837 29.1718C36.5602 28.7486 36.1543 28.3827 35.6647 28.0739C35.174 27.7628 34.6767 27.5158 34.1728 27.3328C33.6007 27.1166 33.0639 26.8513 32.5622 26.5368C32.0627 26.2235 31.6567 25.8346 31.3432 25.3703C31.0285 24.9071 30.8723 24.3547 30.8723 23.7143C30.8723 23.0864 31.023 22.5409 31.3256 22.0766C31.627 21.6134 32.0308 21.2531 32.5358 20.997C33.043 20.7385 33.5941 20.6081 34.1904 20.6081C34.9386 20.6081 35.5558 20.7122 36.0432 20.9192C36.5327 21.1239 36.9376 21.395 37.2578 21.7335C37.5768 22.072 37.8409 22.4414 38.0499 22.8405L37.6538 24.3502H37.5042C37.5042 24.3502 37.469 24.2301 37.3986 23.9888C37.3282 23.7486 37.2149 23.4478 37.0597 23.0876C36.9068 22.7285 36.7 22.3716 36.4392 22.0171C36.1807 21.6637 35.8671 21.3664 35.4975 21.125C35.13 20.8849 34.6943 20.7637 34.1904 20.7637C34.0144 20.7637 33.7768 20.7991 33.4775 20.8689C33.1805 20.9363 32.8878 21.0541 32.5974 21.2211C32.3069 21.3858 32.0583 21.6088 31.8537 21.889C31.6512 22.1703 31.55 22.5157 31.55 22.9274C31.55 23.4764 31.7106 23.9659 32.0341 24.3959C32.3597 24.8236 32.769 25.1862 33.2619 25.4847C33.757 25.7809 34.2587 26.0245 34.7669 26.2166C35.339 26.4247 35.8737 26.6878 36.3732 27.008C36.8749 27.3282 37.282 27.7171 37.5966 28.1745C37.9102 28.632 38.0675 29.1855 38.0675 29.8351C38.0675 30.4664 37.9135 31.0142 37.6054 31.4774C37.2974 31.9383 36.8925 32.2985 36.3908 32.557C35.8913 32.8132 35.3445 32.9413 34.7493 32.9413Z" fill="black"/>
<path d="M35.6702 5.26879L35.6174 5.35571L34.9088 5.1041L35.3489 3.76832L35.5073 3.82321L36.0574 4.01992L36.009 4.11141C35.9826 4.0874 35.9518 4.06338 35.9166 4.03822C35.8836 4.0142 35.8429 3.99133 35.7934 3.9696C35.7428 3.94558 35.6812 3.91928 35.6086 3.89183L35.4985 3.85066L35.3005 4.44993L35.4369 4.50025C35.5271 4.53456 35.5998 4.55515 35.6526 4.5643C35.7054 4.57116 35.745 4.57574 35.7714 4.57802L35.7406 4.67409C35.7164 4.65922 35.6878 4.64207 35.6526 4.62377C35.6174 4.60318 35.5788 4.58488 35.5381 4.56887C35.4996 4.55401 35.4633 4.54028 35.4281 4.5277L35.2917 4.47738L35.0761 5.12698L35.1993 5.17272C35.3049 5.20932 35.3951 5.23448 35.4721 5.25049C35.548 5.26536 35.6141 5.27108 35.6702 5.26879Z" fill="black"/>
<path d="M36.4417 5.55759L36.5033 5.47525C36.5231 5.55759 36.5561 5.62964 36.6001 5.69025C36.6464 5.75087 36.708 5.79776 36.785 5.83207C36.8312 5.85265 36.8796 5.86409 36.9302 5.86409C36.9797 5.86409 37.0237 5.85151 37.0622 5.82749C37.0996 5.80233 37.1293 5.76574 37.1502 5.7177C37.1766 5.65023 37.181 5.58733 37.1634 5.52557C37.1458 5.46152 37.115 5.40091 37.071 5.34258L36.9566 5.18247C36.9214 5.13444 36.8884 5.08183 36.8598 5.02694C36.8301 4.97204 36.8125 4.916 36.807 4.85768C36.8037 4.80049 36.8158 4.73874 36.8422 4.67469C36.8598 4.62894 36.8917 4.59006 36.939 4.55575C36.9852 4.51915 37.0446 4.49857 37.115 4.49171C37.1854 4.48256 37.2614 4.49857 37.3439 4.53745C37.4165 4.56833 37.477 4.60607 37.5243 4.65182C37.5738 4.69528 37.6123 4.74674 37.6387 4.80735L37.5639 4.88512C37.5551 4.80278 37.5331 4.73759 37.4979 4.68841C37.4649 4.64038 37.4187 4.6015 37.3571 4.57405C37.2801 4.54088 37.2118 4.53288 37.1502 4.55118C37.0908 4.56947 37.0468 4.61408 37.0182 4.68384C36.9973 4.72959 36.9885 4.77419 36.9918 4.8165C36.9973 4.85653 37.0116 4.8977 37.0358 4.94002C37.0589 4.98348 37.0853 5.02694 37.115 5.07268L37.2118 5.20992C37.2471 5.26253 37.2779 5.31399 37.3043 5.36546C37.3329 5.41806 37.3505 5.47067 37.3571 5.52557C37.3659 5.57818 37.3571 5.63422 37.3307 5.69483C37.301 5.77031 37.257 5.82521 37.1986 5.85952C37.1392 5.89268 37.0721 5.90984 36.9962 5.90984C36.9192 5.90984 36.8433 5.89154 36.7674 5.85494C36.6937 5.82406 36.6276 5.78289 36.5693 5.73143C36.5132 5.67882 36.4703 5.62164 36.4417 5.55759Z" fill="black"/>
<path d="M38.4264 5.18988L38.4924 5.10296L39.443 5.62446L39.377 5.71138C39.3594 5.68165 39.3264 5.64505 39.2802 5.60159C39.2361 5.55585 39.1679 5.50896 39.0777 5.45978L39.0249 5.43233L38.4044 6.65375L38.2636 6.57598L38.8841 5.35456L38.7961 5.30424C38.7048 5.25621 38.6266 5.22533 38.5628 5.21275C38.4979 5.19788 38.4528 5.18988 38.4264 5.18988Z" fill="black"/>
<path d="M39.5143 7.30278L40.2536 6.11796L40.2756 6.13168C40.2987 6.14998 40.3295 6.17285 40.3681 6.2003C40.4088 6.22546 40.4495 6.25062 40.4913 6.27807C40.532 6.30323 40.5683 6.3261 40.6013 6.34669C40.7157 6.42331 40.8037 6.50451 40.8653 6.58914C40.9269 6.67492 40.9644 6.76183 40.9798 6.84989C40.9974 6.9391 40.9974 7.02602 40.9798 7.11065C40.9622 7.19642 40.928 7.27762 40.8785 7.35768C40.8081 7.46747 40.7201 7.5521 40.6145 7.61385C40.5089 7.6779 40.3901 7.70306 40.258 7.69162C40.126 7.68247 39.9874 7.62872 39.8444 7.53151C39.818 7.5155 39.7872 7.49492 39.752 7.46747C39.7167 7.44002 39.6793 7.41257 39.6419 7.38512C39.6034 7.35996 39.5671 7.33709 39.5319 7.31651L39.5143 7.30278ZM40.3769 6.24147L39.6771 7.36225C39.709 7.3897 39.7454 7.41715 39.7872 7.44459C39.8279 7.47433 39.862 7.4972 39.8884 7.51321C40.0556 7.62529 40.2063 7.6596 40.3417 7.61385C40.4792 7.56811 40.6068 7.45489 40.7245 7.27533C40.7949 7.16326 40.8367 7.05003 40.8521 6.93681C40.8664 6.82473 40.8488 6.71952 40.7993 6.62116C40.752 6.52052 40.6728 6.43246 40.5617 6.35584C40.5287 6.33525 40.4968 6.31467 40.4649 6.29637C40.4352 6.27578 40.4055 6.25748 40.3769 6.24147Z" fill="black"/>
<path d="M42.0324 9.17682L42.0544 9.15394C42.1215 9.14708 42.1952 9.14022 42.2744 9.13107C42.3536 9.12192 42.4329 9.11163 42.5121 9.09905C42.5935 9.08418 42.6716 9.06703 42.7453 9.04873C42.8212 9.02814 42.8916 9.0007 42.9565 8.96639C43.0204 8.93322 43.0732 8.8909 43.115 8.8383C43.159 8.78683 43.1854 8.73651 43.1942 8.68733C43.203 8.63587 43.1964 8.58669 43.1766 8.54095C43.159 8.4952 43.1326 8.45746 43.0974 8.42658C43.0446 8.37855 42.9829 8.35339 42.9125 8.35339C42.8443 8.3511 42.7783 8.37397 42.7145 8.42201L42.7057 8.41286C42.7904 8.31565 42.8784 8.26533 42.9697 8.2619C43.0633 8.25961 43.1502 8.29392 43.2294 8.36711C43.2932 8.42544 43.3361 8.48605 43.357 8.5501C43.3768 8.61185 43.3801 8.67132 43.3658 8.72851C43.3537 8.78683 43.3306 8.83715 43.2954 8.87947C43.2536 8.92865 43.1997 8.96982 43.1326 9.00298C43.0644 9.03729 42.9895 9.06245 42.9081 9.08075C42.8256 9.09905 42.7431 9.11277 42.6617 9.12192C42.5792 9.13336 42.5 9.14136 42.4241 9.1448C42.347 9.14708 42.2843 9.15051 42.2348 9.15394L42.7497 9.61598L42.6529 9.73035L42.0324 9.17682Z" fill="black"/>
<path d="M43.7698 9.85301C43.8688 9.75237 43.9656 9.67689 44.0602 9.62428C44.157 9.56938 44.2495 9.54537 44.3375 9.55109C44.4255 9.55452 44.5047 9.59226 44.5751 9.66545C44.6477 9.74208 44.6862 9.82556 44.6895 9.91705C44.6917 10.0085 44.6675 10.1046 44.6147 10.2053C44.5641 10.3025 44.4893 10.402 44.3903 10.5026C44.2957 10.5998 44.201 10.6764 44.1042 10.7313C44.0096 10.7862 43.9194 10.8114 43.8314 10.8091C43.7434 10.8057 43.662 10.7656 43.5893 10.6902C43.5156 10.6135 43.4771 10.5301 43.4749 10.4386C43.4716 10.3471 43.4969 10.251 43.5497 10.1504C43.6025 10.0497 43.6752 9.95136 43.7698 9.85301ZM43.8886 9.97652C43.8292 10.0406 43.7753 10.1069 43.7258 10.1732C43.6752 10.2407 43.6377 10.3036 43.6113 10.3654C43.5849 10.426 43.5695 10.4843 43.5673 10.5392C43.5673 10.5941 43.586 10.641 43.6245 10.681C43.6653 10.7233 43.7104 10.7428 43.761 10.7405C43.8138 10.7405 43.8677 10.7233 43.9238 10.6902C43.9788 10.6593 44.036 10.617 44.0954 10.5621C44.1537 10.5095 44.2142 10.45 44.2759 10.3837C44.3375 10.3162 44.3925 10.2499 44.4431 10.1824C44.4926 10.116 44.5311 10.052 44.5575 9.99025C44.5861 9.92963 44.5993 9.87131 44.5971 9.81641C44.5971 9.76152 44.5773 9.71463 44.5399 9.6746C44.4981 9.62885 44.453 9.60598 44.4035 9.60598C44.3529 9.60598 44.3001 9.62314 44.2451 9.6563C44.1889 9.69061 44.1306 9.73636 44.069 9.79354C44.0074 9.84843 43.9469 9.91019 43.8886 9.97652Z" fill="black"/>
<path d="M44.4786 11.6435L44.5006 11.6207C44.5678 11.6264 44.6415 11.631 44.7207 11.6344C44.8021 11.6401 44.8835 11.6435 44.9627 11.6435C45.0441 11.6435 45.1233 11.6401 45.2004 11.6344C45.2796 11.6275 45.3522 11.6127 45.4204 11.5886C45.4875 11.5681 45.5458 11.536 45.5964 11.4926C45.6492 11.4468 45.6822 11.3999 45.6976 11.3508C45.7152 11.3027 45.7163 11.2547 45.702 11.209C45.6899 11.1609 45.6712 11.1175 45.6448 11.0809C45.5942 11.0237 45.5359 10.9882 45.4688 10.9756C45.4006 10.9608 45.3335 10.9711 45.2664 11.0077L45.2576 10.9985C45.3544 10.9162 45.4479 10.883 45.5392 10.8979C45.6327 10.9105 45.713 10.9573 45.7813 11.0397C45.8363 11.1072 45.8693 11.1746 45.8781 11.241C45.8891 11.305 45.8847 11.3645 45.8649 11.4194C45.844 11.4743 45.8121 11.5223 45.7681 11.5612C45.7207 11.6001 45.6602 11.631 45.5876 11.6527C45.5172 11.6733 45.4391 11.687 45.3544 11.6939C45.2719 11.6996 45.1883 11.6996 45.1035 11.6939C45.021 11.6904 44.9418 11.6847 44.8659 11.6756C44.7922 11.6664 44.7295 11.6596 44.6767 11.6573L45.1167 12.1971L45.0067 12.2931L44.4786 11.6435Z" fill="black"/>
<path d="M46.1449 12.7216L46.6812 12.3772L46.996 12.8893L46.8833 12.9845L46.5763 12.486L46.2459 12.6854C46.2926 12.716 46.3353 12.7624 46.3742 12.8259C46.3994 12.8689 46.4218 12.9165 46.4402 12.9709C46.4577 13.0275 46.4674 13.0853 46.4674 13.1431C46.4694 13.2031 46.4597 13.2609 46.4364 13.3153C46.415 13.3719 46.3781 13.424 46.3237 13.4693C46.2586 13.5203 46.1925 13.5486 46.1255 13.5554C46.0575 13.5645 45.9943 13.5486 45.935 13.5101C45.8777 13.4739 45.8282 13.4218 45.7874 13.356C45.7504 13.2949 45.7271 13.2258 45.7174 13.1476C45.7096 13.0717 45.7223 12.9867 45.7563 12.8938L45.7757 12.8984C45.7573 12.9561 45.7495 13.0083 45.7524 13.057C45.7543 13.1079 45.7621 13.1533 45.7757 13.1929C45.7913 13.2314 45.8068 13.2654 45.8223 13.2926C45.8661 13.3617 45.9234 13.4036 45.9933 13.4195C46.0633 13.4342 46.1352 13.4116 46.211 13.3515C46.2654 13.3062 46.2984 13.2518 46.312 13.1884C46.3275 13.1272 46.3256 13.066 46.3081 13.0026C46.2926 12.9391 46.2673 12.8825 46.2343 12.8304C46.2207 12.8066 46.2071 12.7851 46.1915 12.7669C46.1779 12.7466 46.1624 12.7307 46.1449 12.7216Z" fill="black"/>
</svg>
